<?xml version="1.0" encoding="UTF-8"?><svg id="Design" xmlns="http://www.w3.org/2000/svg" viewBox="0 0 673.8 92.72"><defs><style>.cls-1{fill:#000;stroke-width:0px;}</style></defs><g id="DESIGN"><path class="cls-1" d="M20.29,79.1c1.56.15,3.1.27,4.61.37,1.56.05,3.08.07,4.54.07,12.01,0,20.8-2.68,26.37-8.06,5.62-5.37,8.42-13.84,8.42-25.42s-2.81-20.07-8.42-25.34c-5.62-5.32-14.6-7.98-26.95-7.98-2.29,0-4.05.02-5.27.07-1.17.05-2.27.15-3.3.29v65.99ZM20.29,89.43H5.42c-1.81,0-3.17-.44-4.1-1.32-.88-.88-1.32-2.2-1.32-3.96,0-1.9.51-3.22,1.54-3.96,1.07-.73,3.08-1.1,6.01-1.1h1.32V13.11h-1.17c-2.93,0-4.96-.39-6.08-1.17-1.07-.78-1.61-2.15-1.61-4.1,0-1.81.44-3.12,1.32-3.95.93-.88,2.34-1.32,4.25-1.32h30.91c12.16,0,21.85,3.93,29.08,11.79,7.23,7.81,10.84,18.38,10.84,31.71,0,6.49-1.05,12.52-3.15,18.09-2.05,5.57-5.05,10.45-9.01,14.65-3.66,3.81-8.13,6.59-13.4,8.35-5.22,1.71-11.96,2.56-20.21,2.56-.98,0-2.64-.05-4.98-.15-2.29-.1-4.08-.15-5.35-.15ZM126.53,89.43h-3.44c-1.76,0-3.1-.44-4.03-1.32-.88-.88-1.32-2.2-1.32-3.96,0-1.95.51-3.27,1.54-3.96,1.07-.73,3.49-1.1,7.25-1.1h4.69V13.11h-4.69c-3.66,0-6.05-.37-7.18-1.1-1.07-.78-1.61-2.17-1.61-4.18,0-1.81.44-3.12,1.32-3.95.93-.88,2.32-1.32,4.17-1.32h63.79c1.66,0,2.9.51,3.74,1.54.88.98,1.32,2.42,1.32,4.32v17.29c0,2.54-.37,4.3-1.1,5.27-.73.98-2.05,1.46-3.96,1.46-2,0-3.39-.54-4.18-1.61-.73-1.07-1.1-3.49-1.1-7.25v-10.47h-38.97v24.68h19.19v-3.88c0-2.64.34-4.47,1.03-5.49.73-1.03,1.98-1.54,3.74-1.54s2.88.56,3.52,1.68c.68,1.07,1.03,3.42,1.03,7.03v13.62c0,3.66-.34,6.01-1.03,7.03-.68,1.03-1.9,1.54-3.66,1.54s-2.98-.59-3.66-1.76c-.63-1.17-.95-3.44-.95-6.81v-2.56h-19.19v32.45h38.97v-11.86c0-3.76.37-6.18,1.1-7.25.78-1.08,2.17-1.61,4.18-1.61,1.85,0,3.15.51,3.88,1.54.78.98,1.17,2.86,1.17,5.64v18.46c0,1.76-.44,3.1-1.32,4.03-.88.93-2.12,1.39-3.74,1.39h-60.5ZM260.27,86.11c0,3,0,4.47-.87,5.3-.88.88-2.27,1.32-4.18,1.32-2.05,0-3.59-.61-4.61-1.83-.98-1.17-1.54-3.1-1.68-5.79l-.95-16.99v-1.32c0-2.34.44-4,1.32-4.98.93-.98,2.44-1.46,4.54-1.46,2.93,0,3.3,1.3,5.44,6.76s6,11,11,13,7.73,2,12.86,2c6.3,0,11.4-1.49,15.31-4.47,3.95-2.98,5.93-6.79,5.93-11.43,0-3.86-1.22-6.96-3.66-9.3-2.39-2.34-5.91-3.86-10.55-4.54l-10.84-1.46c-10.11-1.42-17.48-4.08-22.12-7.98-4.64-3.91-6.96-9.4-6.96-16.48,0-7.47,3.08-13.74,9.23-18.82,6.2-5.08,13.92-7.62,23.14-7.62,2.69,0,5.52.37,8.5,1.1,2.98.68,7.35,2.78,11.11,4.3-.95-1.29-.95-2.29,1.05-3.29s7-1,7,1c0,1.41,3,18.08,3,19,0,2-.82,3.13-1.8,4.11-.98.93-2.34,1.39-4.1,1.39-2.59,0-3.59-1.81-5.01-5.42-.68-2.05-1.37-3.59-2.05-4.62-1.61-2.44-3.93-4.32-6.96-5.64-3.03-1.32-7.47-1.98-11.33-1.98-5.91,0-10.72,1.46-14.43,4.39-3.66,2.93-5.49,6.76-5.49,11.5,0,3.71,1.37,6.64,4.1,8.79,2.78,2.15,7.01,3.61,12.67,4.39l11.72,1.46c8.5,1.12,14.89,3.74,19.19,7.84,4.3,4.05,6.45,9.55,6.45,16.48,0,8.2-3.05,14.8-9.15,19.77-6.1,4.93-14.26,7.4-24.46,7.4-3.52,0-7.01-.41-10.47-1.24-3.47-.83-7.87-1.64-11.87-4.64ZM417.32,79.1c3.76,0,6.15.37,7.18,1.1,1.07.68,1.61,2,1.61,3.96s-.54,3.39-1.61,4.17c-1.03.73-3.42,1.1-7.18,1.1h-47.9c-1.76,0-3.1-.44-4.03-1.32-.93-.88-1.39-2.2-1.39-3.96,0-1.95.54-3.27,1.61-3.96,1.07-.73,3.49-1.1,7.25-1.1h16.55V13.11h-16.55c-3.66,0-6.05-.37-7.18-1.1-1.12-.78-1.68-2.17-1.68-4.18,0-1.81.46-3.12,1.39-3.95.93-.88,2.32-1.32,4.17-1.32h51.2c1.76,0,3.08.44,3.96,1.32.93.88,1.39,2.2,1.39,3.95,0,2-.56,3.39-1.68,4.18-1.07.73-3.44,1.1-7.1,1.1h-16.55v65.99h16.55ZM532.44,76.83v-17.43h-18.16c-1.46,0-2.56-.39-3.3-1.17-.68-.78-1.03-1.98-1.03-3.59,0-1.86.32-3.12.95-3.81.64-.68,1.86-1.02,3.66-1.02h31.64c1.27,0,2.2.41,2.78,1.24.64.78.95,1.98.95,3.59,0,1.81-.41,3.05-1.24,3.74-.78.68-2.2,1.03-4.25,1.03h-.95v22.05c0,1.32-.15,2.25-.44,2.78-.29.49-.88.98-1.76,1.47-2.78,1.66-6.84,3.08-12.16,4.25-5.32,1.17-10.72,1.76-16.19,1.76-13.09,0-23.66-4.17-31.71-12.52s-12.08-19.24-12.08-32.67,3.93-24.51,11.79-33.25c7.91-8.74,17.97-13.11,30.18-13.11,3.32,0,6.64.39,9.96,1.17,3.37.73,6.86,1.85,10.47,3.37.49-1.27,1.15-2.17,1.98-2.71.88-.59,2-.88,3.37-.88,2.29,0,3.81.68,4.54,2.05.78,1.37,1.17,4.52,1.17,9.45v9.96c0,2.39-.41,4.08-1.24,5.05-.83.93-2.27,1.39-4.32,1.39-2.54,0-4.37-1.56-5.49-4.69-.39-.93-.71-1.64-.95-2.12-1.81-3.86-4.39-6.84-7.76-8.94-3.37-2.1-7.23-3.15-11.57-3.15-8.74,0-15.72,3.17-20.95,9.52-5.23,6.3-7.84,14.82-7.84,25.56s2.88,19.9,8.64,26.44c5.76,6.54,13.43,9.82,23,9.82,2.78,0,5.64-.37,8.57-1.1,2.98-.73,6.23-1.9,9.74-3.52ZM613.81,79.1h9.16c2.64,0,4.52.39,5.64,1.17,1.12.78,1.68,2.08,1.68,3.88,0,2-.54,3.39-1.61,4.17-1.03.73-3.32,1.1-6.88,1.1h-21.75c-1.76,0-3.08-.44-3.96-1.32-.88-.88-1.32-2.2-1.32-3.96,0-1.95.49-3.27,1.46-3.96,1.03-.73,2.98-1.1,5.86-1.1h1.39V13.11h-1.83c-4.1,0-6.89-.39-8.35-1.17-1.42-.78-2.12-2.15-2.12-4.1,0-1.81.61-3.1,1.83-3.88,1.27-.83,3.29-1.24,6.08-1.24,0,0,.49-.02,1.46-.07.98-.05,1.95-.07,2.93-.07h6.89c2.25,0,3.81.27,4.69.8.93.49,2,1.78,3.22,3.88l36.91,63.72V13.11h-8.06c-2.64,0-4.57-.42-5.79-1.24-1.17-.88-1.76-2.22-1.76-4.03,0-2,.51-3.37,1.54-4.1,1.03-.78,3.17-1.17,6.45-1.17h21.02c1.76,0,3.05.44,3.88,1.32.88.88,1.32,2.2,1.32,3.95,0,1.95-.54,3.32-1.61,4.1-1.03.78-2.93,1.17-5.71,1.17h-.88v73.76c0,1.42-.34,2.39-1.03,2.93-.64.54-2.15.81-4.54.81s-3.88-.15-4.47-.44c-.54-.24-1.47-1.49-2.78-3.73l-38.97-67.16v59.84Z"/></g></svg>