<svg width="767" height="167" viewBox="0 0 767 167" fill="none" xmlns="http://www.w3.org/2000/svg">
<g style="mix-blend-mode:hard-light">
<path d="M4.34617 65V22.1H11.7262L25.1662 57.74H25.2862L38.7262 22.1H46.1062V65H40.7062V29.72H40.5862L27.6262 65H22.8262L9.86617 29.72H9.74617V65H4.34617ZM72.1509 42.2C72.1509 39.8 70.8309 37.76 65.9109 37.76C60.0909 37.76 58.1709 39.44 57.8709 43.88H53.0709C53.3709 38 57.0309 33.56 65.9109 33.56C71.7309 33.56 76.9509 35.84 76.9509 43.22V58.1C76.9509 60.5 77.3709 61.82 80.4309 61.46V64.82C79.1709 65.24 78.5109 65.3 77.6109 65.3C74.7309 65.3 72.9909 64.52 72.1509 61.16H72.0309C70.1109 64.04 66.6909 65.84 61.6509 65.84C55.4709 65.84 51.5709 62.3 51.5709 57.14C51.5709 50.18 56.7309 48.38 64.6509 46.88C69.8109 45.92 72.1509 45.26 72.1509 42.2ZM62.1309 61.64C67.8309 61.64 72.1509 59.06 72.1509 53.18V48.08C71.2509 48.98 68.3109 49.82 65.0709 50.48C59.1309 51.74 56.3709 53.24 56.3709 56.9C56.3709 59.9 58.1709 61.64 62.1309 61.64ZM84.0168 22.1H88.8168V47.54L102.857 34.4H108.857L96.9168 45.74L110.117 65H104.417L93.5568 48.56L88.8168 52.94V65H84.0168V22.1ZM116.372 28.46C115.052 28.46 113.372 27.44 113.372 25.58C113.372 23.72 115.052 22.7 116.372 22.7C117.752 22.7 119.372 23.72 119.372 25.58C119.372 27.44 117.752 28.46 116.372 28.46ZM113.972 34.4H118.772V65H113.972V34.4ZM140.97 33.56C146.55 33.56 151.23 36.62 151.23 43.64V65H146.43V44.84C146.43 40.88 144.57 37.76 139.77 37.76C134.37 37.76 130.77 41.18 130.77 45.92V65H125.97V34.4H130.77V38.06H130.89C132.51 35.9 135.75 33.56 140.97 33.56ZM179.449 34.4H184.249V63.32C184.249 71.48 179.089 75.62 170.689 75.62C162.289 75.62 157.309 71.18 156.829 65.96H161.629C162.229 69.08 164.749 71.42 170.449 71.42C176.149 71.42 179.449 68.96 179.449 63.26V58.64H179.329C177.529 61.28 174.649 63.44 169.609 63.44C162.049 63.44 155.929 58.58 155.929 48.5C155.929 38.42 162.049 33.56 169.609 33.56C174.649 33.56 177.529 35.84 179.329 38.18H179.449V34.4ZM170.209 59.24C175.909 59.24 179.449 55.7 179.449 48.5C179.449 41.3 175.909 37.76 170.209 37.76C163.909 37.76 160.729 42.5 160.729 48.5C160.729 54.5 163.909 59.24 170.209 59.24ZM221.565 42.2C221.565 39.8 220.245 37.76 215.325 37.76C209.505 37.76 207.585 39.44 207.285 43.88H202.485C202.785 38 206.445 33.56 215.325 33.56C221.145 33.56 226.365 35.84 226.365 43.22V58.1C226.365 60.5 226.785 61.82 229.845 61.46V64.82C228.585 65.24 227.925 65.3 227.025 65.3C224.145 65.3 222.405 64.52 221.565 61.16H221.445C219.525 64.04 216.105 65.84 211.065 65.84C204.885 65.84 200.985 62.3 200.985 57.14C200.985 50.18 206.145 48.38 214.065 46.88C219.225 45.92 221.565 45.26 221.565 42.2ZM211.545 61.64C217.245 61.64 221.565 59.06 221.565 53.18V48.08C220.665 48.98 217.725 49.82 214.485 50.48C208.545 51.74 205.785 53.24 205.785 56.9C205.785 59.9 207.585 61.64 211.545 61.64ZM248.431 33.56C254.011 33.56 258.691 36.62 258.691 43.64V65H253.891V44.84C253.891 40.88 252.031 37.76 247.231 37.76C241.831 37.76 238.231 41.18 238.231 45.92V65H233.431V34.4H238.231V38.06H238.351C239.971 35.9 243.211 33.56 248.431 33.56ZM297.242 65.84C284.642 65.84 276.242 56.42 276.242 43.52C276.242 30.62 284.642 21.26 297.242 21.26C309.842 21.26 318.242 30.62 318.242 43.52C318.242 56.42 309.842 65.84 297.242 65.84ZM297.242 61.04C308.042 61.04 312.842 52.76 312.842 43.52C312.842 34.28 308.042 26.06 297.242 26.06C286.442 26.06 281.642 34.28 281.642 43.52C281.642 52.76 286.442 61.04 297.242 61.04ZM338.478 33.56C346.158 33.56 352.278 39.62 352.278 49.7C352.278 59.78 346.158 65.84 338.478 65.84C333.558 65.84 330.678 63.56 328.878 61.22H328.758V65H323.958V22.1H328.758V38.36H328.878C330.678 35.72 333.558 33.56 338.478 33.56ZM337.998 61.64C344.298 61.64 347.478 55.7 347.478 49.7C347.478 43.7 344.298 37.76 337.998 37.76C332.298 37.76 328.758 42.5 328.758 49.7C328.758 56.9 332.298 61.64 337.998 61.64ZM369.542 46.82C375.002 48.14 381.182 49.04 381.182 56.6C381.182 62.18 376.082 65.84 369.122 65.84C359.762 65.84 355.442 61.4 355.142 54.8H359.942C360.242 58.22 361.442 61.64 369.122 61.64C374.342 61.64 376.382 58.94 376.382 56.9C376.382 52.46 372.362 52.22 367.982 51.14C363.302 50 356.342 49.46 356.342 42.26C356.342 37.46 360.602 33.56 367.802 33.56C375.422 33.56 379.502 37.88 379.982 43.16H375.182C374.702 40.82 373.562 37.76 367.802 37.76C363.482 37.76 361.142 39.5 361.142 41.9C361.142 45.5 365.282 45.8 369.542 46.82ZM408.139 45.44C407.899 42.08 405.619 37.76 399.499 37.76C392.239 37.76 389.479 43.94 389.479 49.7C389.479 55.46 392.239 61.64 399.499 61.64C405.679 61.64 407.899 57.38 408.139 53.72H412.939C412.519 60.68 407.059 65.84 399.499 65.84C390.559 65.84 384.679 59.3 384.679 49.7C384.679 40.1 390.559 33.56 399.499 33.56C407.059 33.56 412.219 38.6 412.939 45.44H408.139ZM437.812 34.4H442.612V65H437.812V61.34H437.692C436.072 63.5 432.832 65.84 427.612 65.84C422.032 65.84 417.352 62.78 417.352 55.76V34.4H422.152V54.56C422.152 58.52 424.012 61.64 428.812 61.64C434.212 61.64 437.812 58.22 437.812 53.48V34.4ZM462.612 33.56C463.752 33.56 464.592 33.62 465.432 33.74V38.54H465.312C458.652 37.46 454.032 42.14 454.032 48.68V65H449.232V34.4H454.032V40.46H454.152C455.772 36.44 458.232 33.56 462.612 33.56ZM481.646 61.64C487.766 61.64 490.046 57.68 490.586 55.58H495.386C493.826 61.28 489.446 65.84 481.826 65.84C472.526 65.84 466.886 59.3 466.886 49.7C466.886 39.5 472.646 33.56 481.586 33.56C491.186 33.56 495.866 40.1 495.866 50.96H471.686C471.686 56.48 474.986 61.64 481.646 61.64ZM481.586 37.76C475.826 37.76 471.686 41.84 471.686 46.76H491.066C491.066 41.84 487.346 37.76 481.586 37.76ZM544.43 36.26C543.65 32.18 540.53 26.06 531.59 26.06C521.39 26.06 517.13 34.88 517.13 43.52C517.13 52.22 521.39 61.04 531.59 61.04C540.59 61.04 544.07 54.92 544.43 49.52H549.83C548.87 59 542.15 65.84 531.59 65.84C519.83 65.84 511.73 56.48 511.73 43.52C511.73 30.62 519.83 21.26 531.59 21.26C542.09 21.26 548.81 28.1 549.83 36.26H544.43ZM568.429 65.84C559.069 65.84 553.429 59.24 553.429 49.7C553.429 40.16 559.069 33.56 568.429 33.56C577.729 33.56 583.369 40.16 583.369 49.7C583.369 59.24 577.729 65.84 568.429 65.84ZM568.429 61.64C575.269 61.64 578.569 56.24 578.569 49.7C578.569 43.16 575.269 37.76 568.429 37.76C561.529 37.76 558.229 43.16 558.229 49.7C558.229 56.24 561.529 61.64 568.429 61.64ZM588.396 22.1H593.196V65H588.396V22.1ZM599.587 22.1H604.387V65H599.587V22.1ZM624.205 61.64C630.325 61.64 632.605 57.68 633.145 55.58H637.945C636.385 61.28 632.005 65.84 624.385 65.84C615.085 65.84 609.445 59.3 609.445 49.7C609.445 39.5 615.205 33.56 624.145 33.56C633.745 33.56 638.425 40.1 638.425 50.96H614.245C614.245 56.48 617.545 61.64 624.205 61.64ZM624.145 37.76C618.385 37.76 614.245 41.84 614.245 46.76H633.625C633.625 41.84 629.905 37.76 624.145 37.76ZM664.897 45.44C664.657 42.08 662.377 37.76 656.257 37.76C648.997 37.76 646.237 43.94 646.237 49.7C646.237 55.46 648.997 61.64 656.257 61.64C662.437 61.64 664.657 57.38 664.897 53.72H669.697C669.277 60.68 663.817 65.84 656.257 65.84C647.317 65.84 641.437 59.3 641.437 49.7C641.437 40.1 647.317 33.56 656.257 33.56C663.817 33.56 668.977 38.6 669.697 45.44H664.897ZM687.61 38.6H681.61V57.02C681.61 60.5 683.53 61.1 687.61 60.8V65C686.53 65.24 685.27 65.36 684.01 65.36C679.93 65.36 676.81 63.74 676.81 57.5V38.6H672.31V34.4H676.81V24.2H681.61V34.4H687.61V38.6ZM695.63 28.46C694.31 28.46 692.63 27.44 692.63 25.58C692.63 23.72 694.31 22.7 695.63 22.7C697.01 22.7 698.63 23.72 698.63 25.58C698.63 27.44 697.01 28.46 695.63 28.46ZM693.23 34.4H698.03V65H693.23V34.4ZM718.488 65.84C709.128 65.84 703.488 59.24 703.488 49.7C703.488 40.16 709.128 33.56 718.488 33.56C727.788 33.56 733.428 40.16 733.428 49.7C733.428 59.24 727.788 65.84 718.488 65.84ZM718.488 61.64C725.328 61.64 728.628 56.24 728.628 49.7C728.628 43.16 725.328 37.76 718.488 37.76C711.588 37.76 708.288 43.16 708.288 49.7C708.288 56.24 711.588 61.64 718.488 61.64ZM753.275 33.56C758.855 33.56 763.535 36.62 763.535 43.64V65H758.735V44.84C758.735 40.88 756.875 37.76 752.075 37.76C746.675 37.76 743.075 41.18 743.075 45.92V65H738.275V34.4H743.075V38.06H743.195C744.815 35.9 748.055 33.56 753.275 33.56Z" fill="white"/>
</g>
<rect x="2" y="97" width="763" height="68" stroke="white" stroke-width="4"/>
<path d="M11.02 154V111.1H26.56C38.38 111.1 45.64 118.78 45.64 132.58C45.64 146.38 38.38 154 26.56 154H11.02ZM16.42 115.9V149.2H26.56C37.48 149.2 40.24 140.98 40.24 132.58C40.24 124.18 37.48 115.9 26.56 115.9H16.42ZM54.9156 117.46C53.5956 117.46 51.9156 116.44 51.9156 114.58C51.9156 112.72 53.5956 111.7 54.9156 111.7C56.2956 111.7 57.9156 112.72 57.9156 114.58C57.9156 116.44 56.2956 117.46 54.9156 117.46ZM52.5156 123.4H57.3156V154H52.5156V123.4ZM77.5333 135.82C82.9933 137.14 89.1733 138.04 89.1733 145.6C89.1733 151.18 84.0733 154.84 77.1133 154.84C67.7533 154.84 63.4333 150.4 63.1333 143.8H67.9333C68.2333 147.22 69.4333 150.64 77.1133 150.64C82.3333 150.64 84.3733 147.94 84.3733 145.9C84.3733 141.46 80.3533 141.22 75.9733 140.14C71.2933 139 64.3333 138.46 64.3333 131.26C64.3333 126.46 68.5933 122.56 75.7933 122.56C83.4133 122.56 87.4933 126.88 87.9733 132.16H83.1733C82.6933 129.82 81.5533 126.76 75.7933 126.76C71.4733 126.76 69.1333 128.5 69.1333 130.9C69.1333 134.5 73.2733 134.8 77.5333 135.82ZM116.73 134.44C116.49 131.08 114.21 126.76 108.09 126.76C100.83 126.76 98.0702 132.94 98.0702 138.7C98.0702 144.46 100.83 150.64 108.09 150.64C114.27 150.64 116.49 146.38 116.73 142.72H121.53C121.11 149.68 115.65 154.84 108.09 154.84C99.1502 154.84 93.2702 148.3 93.2702 138.7C93.2702 129.1 99.1502 122.56 108.09 122.56C115.65 122.56 120.81 127.6 121.53 134.44H116.73ZM139.983 154.84C130.623 154.84 124.983 148.24 124.983 138.7C124.983 129.16 130.623 122.56 139.983 122.56C149.283 122.56 154.923 129.16 154.923 138.7C154.923 148.24 149.283 154.84 139.983 154.84ZM139.983 150.64C146.823 150.64 150.123 145.24 150.123 138.7C150.123 132.16 146.823 126.76 139.983 126.76C133.083 126.76 129.783 132.16 129.783 138.7C129.783 145.24 133.083 150.64 139.983 150.64ZM156.604 123.4H161.824L170.284 149.2H170.344L178.804 123.4H184.024L173.044 154H167.584L156.604 123.4ZM200.475 150.64C206.595 150.64 208.875 146.68 209.415 144.58H214.215C212.655 150.28 208.275 154.84 200.655 154.84C191.355 154.84 185.715 148.3 185.715 138.7C185.715 128.5 191.475 122.56 200.415 122.56C210.015 122.56 214.695 129.1 214.695 139.96H190.515C190.515 145.48 193.815 150.64 200.475 150.64ZM200.415 126.76C194.655 126.76 190.515 130.84 190.515 135.76H209.895C209.895 130.84 206.175 126.76 200.415 126.76ZM233.427 122.56C234.567 122.56 235.407 122.62 236.247 122.74V127.54H236.127C229.467 126.46 224.847 131.14 224.847 137.68V154H220.047V123.4H224.847V129.46H224.967C226.587 125.44 229.047 122.56 233.427 122.56ZM258.761 131.2C258.761 128.8 257.441 126.76 252.521 126.76C246.701 126.76 244.781 128.44 244.481 132.88H239.681C239.981 127 243.641 122.56 252.521 122.56C258.341 122.56 263.561 124.84 263.561 132.22V147.1C263.561 149.5 263.981 150.82 267.041 150.46V153.82C265.781 154.24 265.121 154.3 264.221 154.3C261.341 154.3 259.601 153.52 258.761 150.16H258.641C256.721 153.04 253.301 154.84 248.261 154.84C242.081 154.84 238.181 151.3 238.181 146.14C238.181 139.18 243.341 137.38 251.261 135.88C256.421 134.92 258.761 134.26 258.761 131.2ZM248.741 150.64C254.441 150.64 258.761 148.06 258.761 142.18V137.08C257.861 137.98 254.921 138.82 251.681 139.48C245.741 140.74 242.981 142.24 242.981 145.9C242.981 148.9 244.781 150.64 248.741 150.64ZM285.747 122.56C293.427 122.56 299.547 128.62 299.547 138.7C299.547 148.78 293.427 154.84 285.747 154.84C280.827 154.84 277.947 152.56 276.147 150.22H276.027V154H271.227V111.1H276.027V127.36H276.147C277.947 124.72 280.827 122.56 285.747 122.56ZM285.267 150.64C291.567 150.64 294.747 144.7 294.747 138.7C294.747 132.7 291.567 126.76 285.267 126.76C279.567 126.76 276.027 131.5 276.027 138.7C276.027 145.9 279.567 150.64 285.267 150.64ZM305.171 111.1H309.971V154H305.171V111.1ZM330.389 150.64C336.509 150.64 338.789 146.68 339.329 144.58H344.129C342.569 150.28 338.189 154.84 330.569 154.84C321.269 154.84 315.629 148.3 315.629 138.7C315.629 128.5 321.389 122.56 330.329 122.56C339.929 122.56 344.609 129.1 344.609 139.96H320.429C320.429 145.48 323.729 150.64 330.389 150.64ZM330.329 126.76C324.569 126.76 320.429 130.84 320.429 135.76H339.809C339.809 130.84 336.089 126.76 330.329 126.76Z" fill="white"/>
</svg>
