<svg width="759" height="105" viewBox="0 0 759 105" fill="none" xmlns="http://www.w3.org/2000/svg">
<g clip-path="url(#clip0_2091_86)">
<path d="M23.3255 89.6814C25.0804 89.85 26.8129 89.985 28.5116 90.0975C30.2665 90.1537 31.9765 90.1762 33.6189 90.1762C47.1297 90.1762 57.0181 87.1622 63.2842 81.1117C69.6065 75.0725 72.7564 65.5469 72.7564 52.5238C72.7564 39.5006 69.5952 29.9526 63.2842 24.0258C56.9619 18.0428 46.8597 15.0513 32.9664 15.0513C30.3903 15.0513 28.4103 15.0738 27.0379 15.13C25.7217 15.1863 24.4842 15.2987 23.3255 15.4562V89.6701V89.6814ZM23.3255 101.299H6.5973C4.56112 101.299 3.03117 100.804 1.98495 99.8142C0.994984 98.8245 0.5 97.34 0.5 95.3607C0.5 93.2239 1.07373 91.7394 2.23244 90.9072C3.43615 90.0862 5.69733 89.6701 8.99347 89.6701H10.4784V15.4674H9.16221C5.86607 15.4674 3.5824 15.0288 2.32244 14.1516C1.11873 13.2744 0.51125 11.7337 0.51125 9.54065C0.51125 7.50508 1.00623 6.03183 1.9962 5.09839C3.04242 4.10872 4.62861 3.61388 6.77729 3.61388H41.5499C55.2294 3.61388 66.1303 8.03366 74.2638 16.8732C82.3973 25.6565 86.4584 37.5438 86.4584 52.535C86.4584 59.8338 85.2772 66.6153 82.9148 72.8795C80.6086 79.1436 77.2337 84.6318 72.7789 89.3552C68.6615 93.64 63.6329 96.7665 57.7044 98.7458C51.8321 100.669 44.2498 101.625 34.9689 101.625C33.8664 101.625 31.999 101.569 29.3665 101.456C26.7904 101.344 24.7767 101.287 23.348 101.287L23.3255 101.299ZM142.842 101.299H138.972C136.992 101.299 135.484 100.804 134.438 99.8142C133.448 98.8245 132.953 97.34 132.953 95.3607C132.953 93.1677 133.527 91.6832 134.686 90.9072C135.889 90.0862 138.612 89.6701 142.842 89.6701H148.118V15.4674H142.842C138.724 15.4674 136.036 15.0513 134.764 14.2303C133.561 13.3531 132.953 11.7899 132.953 9.52941C132.953 7.49384 133.448 6.02058 134.438 5.08714C135.484 4.09747 137.048 3.60264 139.129 3.60264H210.891C212.758 3.60264 214.153 4.1762 215.098 5.33456C216.088 6.43669 216.583 8.05615 216.583 10.1929V29.6377C216.583 32.4942 216.167 34.4736 215.345 35.5644C214.524 36.6666 213.039 37.2064 210.891 37.2064C208.641 37.2064 207.077 36.5991 206.188 35.3958C205.367 34.1924 204.951 31.4708 204.951 27.2422V15.4674H161.111V43.2231H182.699V38.8596C182.699 35.8906 183.081 33.8325 183.858 32.6854C184.679 31.527 186.085 30.9535 188.065 30.9535C190.045 30.9535 191.305 31.5833 192.025 32.8429C192.79 34.0462 193.184 36.6891 193.184 40.749V56.0663C193.184 60.1825 192.801 62.8253 192.025 63.9725C191.26 65.1308 189.888 65.7044 187.908 65.7044C185.928 65.7044 184.555 65.0408 183.79 63.725C183.081 62.4092 182.721 59.8563 182.721 56.0663V53.1873H161.133V89.6814H204.973V76.3433C204.973 72.1147 205.389 69.3931 206.211 68.1898C207.088 66.9752 208.652 66.3791 210.913 66.3791C212.994 66.3791 214.457 66.9527 215.278 68.1111C216.155 69.2132 216.594 71.3275 216.594 74.4539V95.2145C216.594 97.1938 216.099 98.7008 215.109 99.7467C214.119 100.793 212.724 101.31 210.902 101.31H142.842V101.299ZM293.294 97.565C293.294 100.939 293.294 102.592 292.315 103.525C291.325 104.515 289.762 105.01 287.613 105.01C285.307 105.01 283.574 104.324 282.427 102.952C281.324 101.636 280.695 99.4656 280.537 96.4403L279.468 77.333V75.8485C279.468 73.2169 279.963 71.35 280.953 70.2478C281.999 69.1457 283.698 68.6059 286.061 68.6059C289.357 68.6059 289.773 70.0679 292.18 76.2084C294.588 82.3488 298.93 88.5792 304.555 90.8285C310.18 93.0777 313.251 93.0777 319.022 93.0777C326.109 93.0777 331.847 91.402 336.245 88.0507C340.689 84.6993 342.916 80.4145 342.916 75.1962C342.916 70.8552 341.544 67.3688 338.799 64.7372C336.11 62.1056 332.15 60.3961 326.931 59.6314L314.736 57.9894C303.363 56.3925 295.072 53.401 289.852 49.0149C284.632 44.6177 282.022 38.4435 282.022 30.4811C282.022 22.0802 285.487 15.0288 292.405 9.31573C299.38 3.60264 308.065 0.746094 318.437 0.746094C321.463 0.746094 324.647 1.1622 327.999 1.98318C331.352 2.74792 336.268 5.10963 340.498 6.81906C339.429 5.3683 339.429 4.24367 341.679 3.11905C343.929 1.99443 349.553 1.99443 349.553 4.24367C349.553 5.82939 352.928 24.5769 352.928 25.6115C352.928 27.8608 352.006 29.1316 350.903 30.2337C349.801 31.2796 348.271 31.797 346.291 31.797C343.377 31.797 342.252 29.7614 340.655 25.7015C339.89 23.396 339.114 21.6641 338.349 20.5057C336.538 17.7617 333.928 15.6474 330.519 14.1629C327.11 12.6784 322.116 11.9361 317.773 11.9361C311.125 11.9361 305.714 13.5781 301.54 16.8732C297.423 20.1683 295.364 24.4757 295.364 29.8064C295.364 33.9787 296.905 37.2739 299.976 39.6918C303.104 42.1098 307.862 43.7517 314.23 44.6289L327.414 46.2709C336.976 47.5304 344.165 50.477 349.002 55.0879C353.84 59.6426 356.258 65.8281 356.258 73.6217C356.258 82.8436 352.827 90.2662 345.965 95.8555C339.103 101.4 329.923 104.178 318.448 104.178C314.488 104.178 310.562 103.717 306.67 102.783C302.766 101.85 297.816 100.939 293.317 97.565H293.294ZM469.97 89.6814C474.199 89.6814 476.888 90.0975 478.047 90.9184C479.25 91.6832 479.858 93.1677 479.858 95.372C479.858 97.5762 479.25 99.1844 478.047 100.062C476.888 100.883 474.199 101.299 469.97 101.299H416.084C414.104 101.299 412.596 100.804 411.55 99.8142C410.504 98.8245 409.987 97.34 409.987 95.3607C409.987 93.1677 410.594 91.6832 411.798 90.9072C413.001 90.0862 415.724 89.6701 419.954 89.6701H438.572V15.4674H419.954C415.836 15.4674 413.148 15.0513 411.876 14.2303C410.616 13.3531 409.987 11.7899 409.987 9.52941C409.987 7.49384 410.504 6.02058 411.55 5.08714C412.596 4.09747 414.16 3.60264 416.241 3.60264H473.839C475.819 3.60264 477.304 4.09747 478.294 5.08714C479.34 6.07681 479.858 7.56131 479.858 9.52941C479.858 11.7787 479.228 13.3419 477.968 14.2303C476.764 15.0513 474.098 15.4674 469.981 15.4674H451.363V89.6814H469.981H469.97ZM599.475 87.1285V67.5263H579.046C577.404 67.5263 576.166 67.0877 575.334 66.2104C574.569 65.3332 574.175 63.9837 574.175 62.173C574.175 60.0812 574.535 58.6642 575.244 57.8882C575.964 57.1235 577.336 56.7411 579.361 56.7411H614.955C616.383 56.7411 617.43 57.2022 618.082 58.1356C618.802 59.0129 619.151 60.3624 619.151 62.173C619.151 64.2086 618.69 65.6032 617.756 66.3791C616.878 67.1439 615.281 67.5375 612.975 67.5375H611.906V92.3355C611.906 93.82 611.737 94.8659 611.411 95.4619C611.085 96.013 610.421 96.5641 609.431 97.1151C606.304 98.982 601.736 100.579 595.752 101.895C589.767 103.211 583.692 103.874 577.538 103.874C562.813 103.874 550.922 99.1844 541.866 89.7938C532.81 80.4032 528.276 68.156 528.276 53.0523C528.276 37.9486 532.697 25.4878 541.54 15.6586C550.438 5.82939 561.755 0.914787 575.491 0.914787C579.226 0.914787 582.961 1.35339 586.696 2.2306C590.487 3.05157 594.413 4.31115 598.474 6.02058C599.025 4.59231 599.768 3.58015 600.702 2.97285C601.691 2.30932 602.951 1.98318 604.493 1.98318C607.069 1.98318 608.779 2.74792 609.6 4.28866C610.477 5.82939 610.916 9.37196 610.916 14.9164V26.1176C610.916 28.8055 610.455 30.7061 609.521 31.797C608.587 32.8429 606.967 33.3602 604.661 33.3602C601.804 33.3602 599.745 31.6058 598.485 28.0857C598.047 27.0398 597.687 26.2413 597.417 25.7015C595.38 21.3604 592.478 18.0091 588.687 15.6474C584.896 13.2857 580.553 12.1048 575.671 12.1048C565.839 12.1048 557.987 15.6699 552.103 22.8112C546.22 29.8963 543.283 39.4781 543.283 51.5566C543.283 63.6351 546.523 73.9366 553.003 81.2917C559.483 88.6467 568.111 92.3355 578.877 92.3355C582.005 92.3355 585.222 91.9194 588.518 91.0984C591.871 90.2774 595.527 88.9616 599.475 87.1397V87.1285ZM691.013 89.6814H701.318C704.288 89.6814 706.403 90.12 707.663 90.9972C708.923 91.8744 709.553 93.3364 709.553 95.3607C709.553 97.61 708.945 99.1732 707.742 100.05C706.583 100.871 704.007 101.287 700.002 101.287H675.534C673.554 101.287 672.069 100.793 671.079 99.803C670.089 98.8133 669.594 97.3288 669.594 95.3495C669.594 93.1564 670.145 91.6719 671.237 90.8959C672.395 90.075 674.589 89.6589 677.829 89.6589H679.393V15.4674H677.334C672.722 15.4674 669.583 15.0288 667.94 14.1516C666.343 13.2744 665.556 11.7337 665.556 9.54065C665.556 7.50508 666.242 6.05432 667.614 5.17711C669.043 4.24367 671.315 3.78258 674.454 3.78258C674.454 3.78258 675.005 3.76009 676.096 3.70385C677.199 3.64762 678.29 3.62513 679.393 3.62513H687.144C689.675 3.62513 691.43 3.92878 692.42 4.52483C693.466 5.0759 694.67 6.52666 696.042 8.88837L737.564 80.5494V15.4674H728.497C725.527 15.4674 723.356 14.9951 721.984 14.0729C720.668 13.0832 720.004 11.5762 720.004 9.54065C720.004 7.29141 720.578 5.75067 721.736 4.92969C722.895 4.05249 725.302 3.61388 728.992 3.61388H752.639C754.619 3.61388 756.07 4.10872 757.004 5.09839C757.994 6.08806 758.489 7.57256 758.489 9.54065C758.489 11.7337 757.881 13.2744 756.678 14.1516C755.519 15.0288 753.381 15.4674 750.254 15.4674H749.264V98.4197C749.264 100.017 748.882 101.108 748.105 101.715C747.385 102.322 745.687 102.626 742.998 102.626C740.309 102.626 738.633 102.457 737.969 102.131C737.362 101.861 736.316 100.455 734.842 97.9361L691.002 22.4064V89.7039L691.013 89.6814Z" fill="white"/>
</g>
<defs>
<clipPath id="clip0_2091_86">
<rect width="758" height="104.275" fill="white" transform="translate(0.5 0.724609)"/>
</clipPath>
</defs>
</svg>
