<svg width="759" height="100" viewBox="0 0 759 100" fill="none" xmlns="http://www.w3.org/2000/svg">
<path d="M60.3693 86.1688C64.5911 86.1688 67.2747 86.5854 68.4312 87.4072C69.6326 88.1728 70.239 89.6588 70.239 91.8654C70.239 94.072 69.6326 95.6819 68.4312 96.56C67.2747 97.3818 64.5911 97.7984 60.3693 97.7984H6.58574C4.60956 97.7984 3.10497 97.303 2.06073 96.3123C1.0165 95.3216 0.5 93.8355 0.5 91.8541C0.5 89.6588 1.10633 88.1728 2.30776 87.4072C3.50918 86.5854 6.22643 86.1688 10.4483 86.1688H29.0311V11.8772H10.4483C6.33872 11.8772 3.65515 11.4607 2.38635 10.6388C1.12878 9.7607 0.5 8.19583 0.5 5.93297C0.5 3.90653 1.0165 2.42047 2.06073 1.48606C3.10497 0.495353 4.6657 0 6.75416 0H64.2431C66.2192 0 67.7014 0.495353 68.6895 1.48606C69.7337 2.47676 70.2502 3.96282 70.2502 5.94423C70.2502 8.19583 69.6214 9.7607 68.3638 10.6388C67.1624 11.4607 64.5013 11.8772 60.3917 11.8772H41.8089V86.1688H60.3917H60.3693ZM142.785 86.1688H153.07C156.034 86.1688 158.145 86.6079 159.403 87.486C160.66 88.3642 161.289 89.8164 161.289 91.8541C161.289 94.1057 160.683 95.6706 159.481 96.5487C158.325 97.3706 155.754 97.7871 151.745 97.7871H127.324C125.347 97.7871 123.865 97.2918 122.888 96.3011C121.9 95.3104 121.406 93.8243 121.406 91.8429C121.406 89.6476 121.957 88.1615 123.046 87.3847C124.202 86.5629 126.392 86.1463 129.625 86.1463H131.186V11.8772H129.131C124.528 11.8772 121.395 11.4381 119.756 10.56C118.161 9.68189 117.375 8.13954 117.375 5.94423C117.375 3.90653 118.06 2.45425 119.43 1.57612C120.856 0.641707 123.135 0.16887 126.257 0.16887C126.257 0.16887 126.807 0.146354 127.896 0.0900641C128.997 0.033774 130.086 0.011258 131.186 0.011258H138.911C141.438 0.011258 143.189 0.315224 144.177 0.923157C145.222 1.4748 146.423 2.92708 147.793 5.29127L189.236 77.0273V11.8772H180.186C177.222 11.8772 175.055 11.4156 173.685 10.47C172.372 9.47925 171.709 7.97067 171.709 5.93297C171.709 3.68137 172.282 2.13902 173.438 1.31719C174.595 0.439063 176.998 0 180.681 0H204.282C206.259 0 207.707 0.495353 208.639 1.48606C209.627 2.47676 210.121 3.96282 210.121 5.94423C210.121 8.13954 209.515 9.68189 208.313 10.56C207.157 11.4381 205.023 11.8772 201.902 11.8772H200.914V94.9163C200.914 96.515 200.532 97.607 199.757 98.2149C199.05 98.8228 197.343 99.1268 194.66 99.1268C191.976 99.1268 190.303 98.9579 189.641 98.6315C189.034 98.3613 188.001 96.954 186.519 94.421L142.785 18.8009V86.1688ZM282.027 86.1688C283.779 86.3377 285.508 86.4728 287.203 86.5854C288.955 86.6417 290.662 86.6642 292.301 86.6642C305.786 86.6642 315.656 83.647 321.91 77.5902C328.209 71.5447 331.364 62.0091 331.364 48.9724C331.364 35.9356 328.209 26.3775 321.91 20.4446C315.611 14.4553 305.517 11.4607 291.65 11.4607C289.067 11.4607 287.102 11.4832 285.732 11.5395C284.419 11.5958 283.184 11.7083 282.027 11.8659V86.1576V86.1688ZM282.027 97.7984H265.331C263.298 97.7984 261.771 97.303 260.727 96.3123C259.739 95.3216 259.245 93.8355 259.245 91.8541C259.245 89.7151 259.818 88.2291 260.974 87.396C262.176 86.5741 264.432 86.1576 267.722 86.1576H269.204V11.8772H267.891C264.601 11.8772 262.321 11.4381 261.064 10.56C259.862 9.68189 259.256 8.13954 259.256 5.94423C259.256 3.90653 259.75 2.43173 260.738 1.48606C261.783 0.495353 263.366 0 265.51 0H300.217C313.871 0 324.751 4.4244 332.869 13.2732C340.987 22.0657 345.04 33.9654 345.04 48.9724C345.04 56.2788 343.861 63.0674 341.503 69.3381C339.202 75.6088 335.833 81.1027 331.387 85.8311C327.277 90.1204 322.258 93.2501 316.341 95.2315C310.48 97.1567 302.912 98.1136 293.648 98.1136C292.548 98.1136 290.684 98.0573 288.057 97.9447C285.474 97.8321 283.476 97.7759 282.05 97.7759L282.027 97.7984ZM397.948 97.7984H394.086C392.109 97.7984 390.605 97.303 389.561 96.3123C388.572 95.3216 388.078 93.8355 388.078 91.8541C388.078 89.6588 388.651 88.1728 389.808 87.396C391.009 86.5741 393.726 86.1576 397.948 86.1576H403.214V11.8772H397.948C393.839 11.8772 391.155 11.4607 389.886 10.6388C388.685 9.7607 388.078 8.19583 388.078 5.94423C388.078 3.90653 388.572 2.43173 389.561 1.48606C390.605 0.495353 392.166 0 394.254 0H465.879C467.743 0 469.136 0.574159 470.067 1.73373C471.056 2.83702 471.55 4.45817 471.55 6.5972V26.0623C471.55 28.9218 471.134 30.9032 470.315 31.9953C469.495 33.0986 468.013 33.6389 465.879 33.6389C463.634 33.6389 462.073 33.031 461.186 31.8264C460.366 30.6218 459.951 27.8974 459.951 23.6643V11.8772H416.205V39.662H437.752V35.2939C437.752 32.3218 438.134 30.2615 438.898 29.1132C439.717 27.9537 441.121 27.3795 443.097 27.3795C445.073 27.3795 446.331 28.0099 447.049 29.2708C447.813 30.4754 448.206 33.1211 448.206 37.1852V52.5186C448.206 56.6391 447.824 59.2847 447.049 60.433C446.286 61.5926 444.916 62.1668 442.94 62.1668C440.964 62.1668 439.594 61.5025 438.83 60.1853C438.123 58.8682 437.764 56.3126 437.764 52.5186V49.6366H416.217V86.1688H459.962V72.8056C459.962 68.5726 460.377 65.8481 461.197 64.6435C462.073 63.4389 463.634 62.831 465.891 62.831C467.968 62.831 469.427 63.4051 470.247 64.5647C471.123 65.668 471.561 67.7845 471.561 70.9142V91.6965C471.561 93.6779 471.067 95.1865 470.079 96.2335C469.091 97.2805 467.698 97.7984 465.891 97.7984H397.959H397.948ZM528.87 11.8772C526.512 11.7646 522.571 11.2693 521.527 10.3911C520.539 9.45673 520.045 7.97067 520.045 5.93297C520.045 4.00785 520.516 2.55557 521.437 1.56486C522.425 0.517869 523.851 0 525.715 0H546.442C548.475 0 550.002 0.517869 551.046 1.56486C552.146 2.55557 552.685 4.00785 552.685 5.93297C552.685 7.85809 552 9.25409 550.631 10.3011C549.261 11.3481 547.374 11.8659 544.96 11.8659H542.58L561.252 38.3335L580.655 11.8659H578.106C575.479 11.8659 573.424 11.3481 571.942 10.3011C570.46 9.1978 569.719 7.74551 569.719 5.93297C569.719 4.12043 570.291 2.69067 571.448 1.64367C572.604 0.540385 574.165 0 576.13 0H596.857C598.721 0 600.114 0.517869 601.046 1.56486C602.034 2.55557 602.528 4.00785 602.528 5.93297C602.528 8.02696 601.955 9.53554 600.799 10.47C599.698 11.4044 595.622 11.8772 593.04 11.8772L567.933 47.4976L596.554 86.1688C598.968 86.3377 601.876 86.8894 603.022 87.8238C604.178 88.7582 604.751 90.1091 604.751 91.8654C604.751 93.6216 604.201 95.1415 603.112 96.2335C602.011 97.2805 600.529 97.7984 598.665 97.7984H576.624C573.772 97.7984 571.852 97.3593 570.864 96.4812C569.876 95.6031 569.382 94.0607 569.382 91.8654C569.382 89.6701 569.988 88.2403 571.19 87.4072C572.391 86.5854 574.749 86.1688 578.263 86.1688H582.755L560.579 57.0669L538.729 86.1688H543.557C547.341 86.1688 549.889 86.5854 551.203 87.4072C552.517 88.2291 553.179 89.7151 553.179 91.8654C553.179 94.0157 552.663 95.6031 551.619 96.4812C550.574 97.3593 548.632 97.7984 545.78 97.7984H523.907C522.043 97.7984 520.561 97.2805 519.461 96.2335C518.36 95.1302 517.821 93.6779 517.821 91.8654C517.821 90.0529 518.394 88.5893 519.551 87.6549C520.707 86.7205 523.66 86.2251 526.187 86.1688L553.988 47.9929L528.881 11.8772H528.87Z" fill="white"/>
<g style="mix-blend-mode:hard-light">
<path d="M661.375 0V98.5076H758.5V0H661.375ZM752.325 92.3157H667.551V6.19191H752.325V92.3157Z" fill="white"/>
<path d="M697.047 83C683.286 83 675 73.1849 675 59C675 44.8151 683.286 35 697.047 35C710.808 35 719 44.8151 719 59C719 73.1849 710.713 83 697.047 83ZM697.047 76.7516C707.095 76.7516 711.951 68.7198 711.951 58.9864C711.951 49.253 707.108 41.2212 697.047 41.2212C686.985 41.2212 682.062 49.253 682.062 58.9864C682.062 68.7198 686.904 76.7516 697.047 76.7516Z" fill="white"/>
<path d="M733.386 30.3369V36.7287H741.986V42.9446H733.386V82H726.301V42.9446H720V36.7287H726.301V29.6327C726.301 20.397 730.912 18 736.942 18C738.538 18 740.404 18.176 742 18.5281V24.744C735.969 24.2971 733.4 25.1909 733.4 30.3369H733.386Z" fill="white"/>
</g>
</svg>
