<?xml version="1.0" encoding="UTF-8"?><svg id="American" xmlns="http://www.w3.org/2000/svg" viewBox="0 0 676.97 67.71"><defs><style>.cls-1{fill:#000;stroke-width:0px;}</style></defs><g id="AMERICAN"><g id="N"><path class="cls-1" d="M630.3,1.64c1.6,0,2.95.17,3.84.69.02.01.04.02.06.04.48.26.92.68,1.33,1.17.43.52.88,1.18,1.33,1.97l24.72,42.67V11.23h-4.81c-1.96,0-3.59-.3-4.72-1.07h-.02s-.02-.03-.02-.03c-1.16-.86-1.67-2.16-1.67-3.7s.39-2.94,1.51-3.74h-.01c.56-.43,1.31-.67,2.15-.83.85-.15,1.89-.22,3.1-.22h15.14c1.4,0,2.64.34,3.5,1.24l.02.02c.87.89,1.22,2.12,1.22,3.53,0,1.56-.42,2.92-1.55,3.75-.01,0-.01,0-.02.02-.54.4-1.22.64-1.97.8-.68.14-1.47.21-2.37.23v52.1c0,1.13-.25,2.2-1.09,2.88-.01.01-.02.02-.03.02-.43.35-1.02.53-1.6.63-.63.11-1.39.16-2.28.16s-1.62-.02-2.2-.08c-.52-.05-1.05-.13-1.43-.32-.01-.01-.03-.01-.04-.02-.25-.12-.45-.3-.61-.46-.17-.18-.35-.39-.53-.64-.37-.49-.79-1.15-1.28-1.98l-26.19-45.15v38.37h5.59c1.95,0,3.56.28,4.63,1.03,1.16.8,1.65,2.1,1.65,3.61,0,1.6-.43,2.99-1.58,3.82-.56.4-1.35.63-2.22.77-.9.14-2.01.21-3.32.21h-15.66c-1.42,0-2.67-.36-3.56-1.24-.88-.89-1.24-2.14-1.24-3.56,0-1.52.38-2.88,1.47-3.65h0s.01-.01.01-.01c.54-.38,1.23-.62,2-.76.78-.15,1.72-.22,2.79-.22h.01V11.23h-.32c-1.51,0-2.8-.07-3.86-.22-1.05-.15-1.95-.38-2.63-.74h-.01c-1.41-.79-2.04-2.16-2.04-3.84,0-1.54.54-2.84,1.77-3.63,1.15-.75,2.83-1.06,4.87-1.06l8.17-.1Z"/></g><g id="A"><path class="cls-1" d="M594.33,57.73c-.52-.38-1.18-.62-1.91-.77-.74-.15-1.61-.22-2.6-.22h-.22l-20.36-50.89h-.01c-.58-1.41-1.3-2.57-2.22-3.22-.02-.02.02.01,0,0-.5-.38-1.16-.63-1.87-.78-.74-.15-1.62-.21-2.62-.21h-15.03c-1.71,0-3.12.07-4.22.22-1.05.14-1.99.37-2.59.81-1.12.8-1.52,2.19-1.52,3.76s.49,2.93,1.68,3.77l.02.02h.02c1.14.74,2.91,1.01,5.08,1.01h6.25l-17.17,45.51h-.31c-1.1,0-2.04.07-2.84.22-.78.14-1.48.38-2.02.76-1.11.8-1.52,2.14-1.52,3.66s.4,2.97,1.5,3.8h.01s.01.02.01.02c.55.39,1.28.62,2.08.77.83.14,1.83.21,2.99.21h13.87c1.31,0,2.42-.07,3.32-.21.87-.14,1.65-.37,2.21-.77h.01c1.14-.83,1.57-2.22,1.57-3.82s-.49-2.85-1.71-3.62c-.01,0-.01,0-.02,0-.58-.39-1.33-.63-2.18-.78-.87-.15-1.9-.23-3.1-.23h-3.69l3.81-10.55h25.41l4.31,10.55h-3.42c-1.18,0-2.2.08-3.06.23-.85.15-1.59.4-2.18.78,0,0-.01,0-.01,0-1.18.78-1.66,2.09-1.66,3.62s.41,2.97,1.51,3.8l.02.02h.02c.57.41,1.38.63,2.28.77.93.14,2.09.21,3.45.21h14.34c.96,0,1.8-.07,2.52-.22.7-.15,1.35-.39,1.85-.79l.02-.02c1.01-.84,1.36-2.22,1.36-3.77s-.38-2.84-1.45-3.65ZM552.39,37.18l8.85-24.17,9.8,24.17h-18.65Z"/></g><g id="C"><path class="cls-1" d="M502.3,54.47c0,1.35-.54,2.59-1.5,3.71-.92,1.08-2.55,2.31-4.8,3.72-.01,0-.01.01-.02.01-3.01,1.98-6.07,3.44-9.15,4.38-3.09.95-6.33,1.42-9.73,1.42-8.95,0-16.39-3.17-22.25-9.5-5.86-6.36-8.76-14.47-8.76-24.25s2.94-17.78,8.86-24.25c5.93-6.47,13.4-9.71,22.36-9.71,2.4,0,4.83.29,7.29.87,2.22.52,4.52,1.25,6.92,2.22.37-.66.85-1.2,1.46-1.57.86-.53,1.98-.73,3.26-.73,1.43,0,2.71.35,3.51,1.31.42.5.66,1.17.81,1.89.15.74.42,16.33.42,16.33-.02,1.62-.3,3.02-1.11,3.88v.02s-.02.01-.02.01c-.86.85-2.2,1.13-3.71,1.13-1.43,0-2.66-.52-3.62-1.56-.91-1-1.52-2.42-1.89-4.15,0-.01-.01-.03-.01-.04-.25-.96-.43-1.7-.57-2.21v-.02c-.6-2.36-2.03-4.31-4.38-5.84-2.35-1.57-5.12-2.37-8.36-2.37-5.94,0-10.64,2.17-14.21,6.49h0c-3.57,4.32-5.41,10.17-5.41,17.67s1.86,13.36,5.46,17.7h0c3.64,4.3,8.39,6.45,14.37,6.45,1.95,0,3.93-.27,5.96-.81h0c2.03-.57,4.02-1.41,5.99-2.54h.02s.01-.02.01-.02c.89-.46,2.14-1.25,3.78-2.4,0,0,.01,0,.01-.01.85-.6,1.59-1.08,2.25-1.41.62-.32,1.27-.56,1.86-.56,1.33,0,2.5.46,3.42,1.37.01.01.02.02.03.03.96.88,1.45,2.02,1.45,3.34Z"/></g><g id="I"><path class="cls-1" d="M419.81,61.38c0,1.6-.42,2.99-1.57,3.82h-.01c-.56.41-1.37.63-2.27.77-.93.14-2.09.21-3.47.21h-34.49c-1.43,0-2.68-.36-3.59-1.22-.93-.89-1.31-2.14-1.31-3.58,0-1.54.41-2.9,1.59-3.67.01-.01.02-.01.03-.02.58-.38,1.37-.6,2.27-.74.94-.14,2.11-.21,3.49-.21h10.91V11.23h-10.91c-1.35,0-2.49-.07-3.42-.21-.91-.14-1.71-.36-2.3-.74l-.02-.02c-1.19-.83-1.64-2.22-1.64-3.83,0-1.44.36-2.71,1.31-3.57l.02-.02c.92-.85,2.21-1.2,3.67-1.2h36.86c1.41,0,2.65.35,3.54,1.22t.02.02c.92.88,1.29,2.13,1.29,3.55,0,1.61-.45,3-1.64,3.83h-.01c-.57.4-1.37.62-2.27.76-.92.14-2.06.21-3.4.21h-10.92v45.51h10.92c1.38,0,2.54.07,3.47.21.88.14,1.67.36,2.23.74.01.01.03.02.04.03,1.16.76,1.58,2.13,1.58,3.66Z"/></g><g id="R"><path class="cls-1" d="M345.9,57.79s-.02-.01-.03-.02c-1.03-.76-2.67-1.03-4.64-1.03h-1.2l-10.3-15.78h-.01v-.02c-.69-1.02-1.45-1.92-2.24-2.68,0-.01.01,0,0,0-.27-.28-.55-.54-.84-.77,3.65-1.22,6.6-3.13,8.82-5.73,2.66-3.11,3.99-6.82,3.99-11.09,0-3.15-.73-6.09-2.17-8.84,0,0,0-.01,0-.01-1.4-2.75-3.36-4.96-5.86-6.64-1.96-1.32-4.35-2.22-7.12-2.73-2.74-.55-6.83-.81-12.21-.81h-22.25c-1.38,0-2.6.33-3.49,1.17h-.01s-.01.02-.01.02c-.85.85-1.19,2.04-1.19,3.39,0,1.53.44,2.89,1.63,3.64.57.36,1.36.57,2.25.7.92.13,2.06.2,3.4.2h2.06v45.98h-3.8c-1.69,0-3.13.29-4.11,1.07-1.03.82-1.43,2.11-1.43,3.57s.37,2.63,1.23,3.54h.01s.01.02.01.02c.87.87,2.08,1.24,3.45,1.24h17.71c1.06,0,1.99-.07,2.77-.23.77-.16,1.47-.41,2.01-.82,1.09-.83,1.5-2.19,1.5-3.75s-.51-2.82-1.71-3.62c-1.11-.74-2.81-1.02-4.88-1.02h-2.59v-17.67h6.02c2.08,0,3.64.44,4.76,1.2h.01c1.19.8,2.81,2.67,4.89,5.79h-.01l10.13,15.35.02.02v.03c.14.16.31.34.5.54,1.69,2.56,3.62,4.18,5.85,4.18h5.96c1.36,0,2.57-.36,3.42-1.26.86-.91,1.22-2.14,1.22-3.54,0-1.49-.41-2.78-1.5-3.59ZM325.04,27.61c-2.21,1.58-5.66,2.45-10.49,2.45h-9.92V10.76h10.23c4.72,0,8.09.88,10.27,2.49,2.13,1.57,3.24,3.91,3.24,7.21s-1.14,5.58-3.33,7.15Z"/></g><g id="E"><path class="cls-1" d="M238.72,17.77v-6.54h-26.06v15.77h11.82v-1.79c0-1.92.24-3.51.91-4.51v-.02s.02-.01.02-.01c.78-1.1,2.05-1.53,3.5-1.53s2.67.49,3.37,1.68c.01.02.02.03.03.05.35.56.54,1.32.67,2.19.14.91.2,2.03.2,3.36v9.81c0,1.34-.06,2.48-.2,3.39-.12.88-.33,1.67-.71,2.23-.75,1.12-2.02,1.55-3.47,1.55s-2.77-.52-3.5-1.76v-.02s-.01-.01-.01-.01c-.31-.58-.51-1.33-.63-2.2-.12-.88-.18-1.94-.18-3.18v-.85h-11.82v21.36h26.06v-7.54c0-1.38.07-2.55.21-3.48.14-.91.36-1.73.75-2.3v-.02s.02-.01.02-.01c.83-1.14,2.22-1.57,3.82-1.57,1.47,0,2.8.43,3.58,1.51.02,0-.01-.01,0,0,.41.52.67,1.2.82,1.94.16.76.23,1.68.23,2.72v13.29c0,1.42-.35,2.67-1.22,3.59-.87.91-2.06,1.31-3.41,1.31h-46.04c-1.42,0-2.67-.36-3.59-1.22l-.02-.02c-.88-.89-1.24-2.14-1.24-3.56,0-1.54.4-2.9,1.54-3.67,0,0,.01,0,.01-.01.58-.38,1.38-.61,2.29-.75.94-.14,2.11-.21,3.49-.21h2.37V11.23h-2.37c-1.35,0-2.49-.07-3.42-.21-.91-.14-1.71-.36-2.3-.74l-.02-.02h-.02c-1.14-.84-1.57-2.23-1.57-3.83,0-1.44.35-2.71,1.26-3.57.92-.87,2.22-1.22,3.69-1.22h45.94c1.39,0,2.6.43,3.43,1.43,0,.01.02.03.03.04.84.95,1.17,2.26,1.17,3.75v12.44c0,1.85-.25,3.41-.99,4.4-.8,1.07-2.14,1.45-3.64,1.45-1.6,0-2.99-.43-3.82-1.57h-.01s-.01-.02-.01-.02c-.39-.58-.61-1.39-.75-2.3-.14-.94-.21-2.11-.21-3.49Z"/></g><g id="M"><path class="cls-1" d="M160.22,61.38c0,1.4-.36,2.63-1.22,3.54h-.01s-.01.02-.01.02c-.88.87-2.08,1.24-3.45,1.24h-14.82c-1.06,0-1.98-.07-2.77-.23-.77-.16-1.46-.41-2-.82-1.09-.83-1.5-2.19-1.5-3.75s.52-2.93,1.8-3.7c.6-.36,1.39-.59,2.29-.73.91-.14,2.01-.21,3.29-.21h1.24l-.94-38.75-8.63,25.05h-.01c-.55,1.57-1.29,2.81-2.3,3.54-1.02.74-2.43,1.04-4.07,1.04s-2.95-.3-3.96-1.04h-.02s-.01-.02-.01-.02c-.99-.76-1.71-1.99-2.23-3.52l-8.77-25.08-.81,38.78h2.51c2.1,0,3.82.28,4.93,1.02,1.2.8,1.71,2.09,1.71,3.62s-.41,2.92-1.5,3.75c-.54.41-1.24.66-2.02.82-.79.16-1.73.23-2.8.23h-14.77c-1.39,0-2.62-.36-3.5-1.24h-.01s-.01-.02-.01-.02c-.84-.89-1.17-2.13-1.17-3.54,0-1.54.42-2.91,1.6-3.67.01-.01.01-.02.02-.01.55-.38,1.28-.6,2.1-.74.84-.15,1.85-.22,3.03-.22h.19l1.47-45.98c-1.86-.02-3.4-.26-4.38-.91h0s-.02-.02-.02-.02c-1.11-.79-1.52-2.11-1.52-3.61,0-1.31.33-2.48,1.17-3.32t.02-.02c.83-.88,1.98-1.24,3.29-1.24h8.65c1.69,0,3.15.29,4.23,1,0,0,.01,0,.01.01,1.1.71,1.88,1.82,2.39,3.23h.01s10.59,30.3,10.59,30.3l10.4-30.28v-.02s.02-.02.02-.02c.54-1.39,1.31-2.5,2.38-3.21h.01c1.11-.72,2.57-1.01,4.29-1.01h8.64c1.3,0,2.43.36,3.24,1.24.01.01.03.03.04.04.82.84,1.15,2,1.15,3.3,0,1.5-.41,2.82-1.52,3.61h-.01c-.52.37-1.18.59-1.91.72-.69.13-1.51.2-2.43.21l1.41,45.98h.25c1.17,0,2.19.07,3.03.22.81.14,1.54.36,2.09.73.01.01.02.01.03.02,1.17.77,1.59,2.13,1.59,3.67Z"/></g><g id="A-2"><path class="cls-1" d="M65.99,57.73c-.52-.38-1.18-.62-1.91-.77-.74-.15-1.61-.22-2.6-.22h-.21L40.9,5.85h0c-.58-1.41-1.3-2.57-2.22-3.22-.5-.38-1.17-.63-1.88-.78-.74-.15-1.62-.21-2.62-.21h-15.03c-1.71,0-3.12.07-4.22.22-1.05.14-1.99.37-2.59.81-1.12.8-1.52,2.19-1.52,3.76s.49,2.93,1.69,3.77v.02s.03.01.03.01c1.14.73,2.91,1,5.08,1h6.25L6.69,56.74h-.31c-1.09,0-2.04.07-2.84.22-.78.14-1.48.38-2.02.76-1.11.8-1.52,2.14-1.52,3.66s.4,2.97,1.5,3.8h.01s0,.02,0,.02c.55.39,1.28.62,2.09.77.82.14,1.82.21,2.98.21h13.87c1.31,0,2.42-.07,3.32-.21.87-.14,1.65-.37,2.21-.77h.01c1.15-.83,1.57-2.22,1.57-3.82s-.49-2.85-1.71-3.62c-.01,0-.01,0-.02,0-.58-.39-1.33-.63-2.18-.78-.86-.15-1.9-.23-3.1-.23h-3.69l3.81-10.55h25.41l4.31,10.55h-3.42c-1.18,0-2.2.08-3.06.23-.85.15-1.59.4-2.18.78,0,0-.01,0-.01,0-1.18.78-1.65,2.09-1.65,3.62s.4,2.97,1.5,3.8l.02.02h.02c.58.41,1.38.63,2.28.77.93.14,2.09.21,3.45.21h14.34c.96,0,1.8-.07,2.52-.22.7-.15,1.35-.39,1.85-.79l.02-.02c1.01-.84,1.36-2.22,1.36-3.77s-.38-2.84-1.45-3.65ZM24.05,37.18l8.85-24.17,9.8,24.17h-18.65Z"/></g></g></svg>