<?xml version="1.0" encoding="UTF-8"?><svg id="IoAD" xmlns="http://www.w3.org/2000/svg" viewBox="0 0 677.1 381.3"><defs><style>.cls-1{fill:#000;stroke-width:0px;}</style></defs><g id="INDEX"><path class="cls-1" d="M55.34,76.67c3.76,0,6.15.37,7.18,1.1,1.07.68,1.61,2,1.61,3.96s-.54,3.39-1.61,4.17c-1.03.73-3.42,1.1-7.18,1.1H7.44c-1.76,0-3.1-.44-4.03-1.32-.93-.88-1.39-2.2-1.39-3.96,0-1.95.54-3.27,1.61-3.96,1.07-.73,3.49-1.1,7.25-1.1h16.55V10.68H10.88c-3.66,0-6.05-.37-7.18-1.1-1.12-.78-1.68-2.17-1.68-4.17,0-1.81.46-3.12,1.39-3.96C4.34.57,5.73.13,7.59.13h51.2c1.76,0,3.08.44,3.96,1.32.93.88,1.39,2.2,1.39,3.96,0,2-.56,3.39-1.68,4.17-1.07.73-3.44,1.1-7.1,1.1h-16.55v65.99h16.55ZM128.74,76.67h9.16c2.64,0,4.52.39,5.64,1.17,1.12.78,1.68,2.07,1.68,3.88,0,2-.54,3.39-1.61,4.17-1.03.73-3.32,1.1-6.89,1.1h-21.75c-1.76,0-3.08-.44-3.95-1.32-.88-.88-1.32-2.2-1.32-3.96,0-1.95.49-3.27,1.46-3.96,1.03-.73,2.98-1.1,5.86-1.1h1.39V10.68h-1.83c-4.1,0-6.89-.39-8.35-1.17-1.42-.78-2.12-2.15-2.12-4.1,0-1.81.61-3.1,1.83-3.88,1.27-.83,3.3-1.25,6.08-1.25,0,0,.49-.02,1.46-.07.98-.05,1.95-.07,2.93-.07h6.88c2.25,0,3.81.27,4.69.81.93.49,2,1.78,3.22,3.88l36.91,63.72V10.68h-8.06c-2.64,0-4.57-.41-5.79-1.25-1.17-.88-1.76-2.22-1.76-4.03,0-2,.51-3.37,1.54-4.1,1.03-.78,3.17-1.17,6.45-1.17h21.02c1.76,0,3.05.44,3.88,1.32.88.88,1.32,2.2,1.32,3.96,0,1.95-.54,3.32-1.61,4.1-1.03.78-2.93,1.17-5.71,1.17h-.88v73.76c0,1.42-.34,2.39-1.03,2.93-.63.54-2.15.81-4.54.81s-3.88-.15-4.47-.44c-.54-.24-1.46-1.49-2.78-3.74l-38.97-67.16v59.84ZM252.74,76.67c1.56.15,3.1.27,4.61.37,1.56.05,3.08.07,4.54.07,12.01,0,20.8-2.68,26.37-8.06,5.61-5.37,8.42-13.84,8.42-25.42s-2.81-20.07-8.42-25.34c-5.61-5.32-14.6-7.98-26.95-7.98-2.3,0-4.05.02-5.27.07-1.17.05-2.27.15-3.3.29v65.99ZM252.74,87h-14.87c-1.81,0-3.17-.44-4.1-1.32-.88-.88-1.32-2.2-1.32-3.96,0-1.9.51-3.22,1.54-3.96,1.07-.73,3.08-1.1,6.01-1.1h1.32V10.68h-1.17c-2.93,0-4.96-.39-6.08-1.17-1.07-.78-1.61-2.15-1.61-4.1,0-1.81.44-3.12,1.32-3.96.93-.88,2.34-1.32,4.25-1.32h30.91c12.16,0,21.85,3.93,29.08,11.79,7.23,7.81,10.84,18.38,10.84,31.71,0,6.49-1.05,12.52-3.15,18.09-2.05,5.57-5.05,10.45-9.01,14.65-3.66,3.81-8.13,6.59-13.4,8.35-5.22,1.71-11.96,2.56-20.21,2.56-.98,0-2.64-.05-4.98-.15-2.3-.1-4.08-.15-5.35-.15ZM355.99,87h-3.44c-1.76,0-3.1-.44-4.03-1.32-.88-.88-1.32-2.2-1.32-3.96,0-1.95.51-3.27,1.54-3.96,1.07-.73,3.49-1.1,7.25-1.1h4.69V10.68h-4.69c-3.66,0-6.05-.37-7.18-1.1-1.07-.78-1.61-2.17-1.61-4.17,0-1.81.44-3.12,1.32-3.96.93-.88,2.32-1.32,4.18-1.32h63.79c1.66,0,2.9.51,3.73,1.54.88.98,1.32,2.42,1.32,4.32v17.29c0,2.54-.37,4.3-1.1,5.27-.73.98-2.05,1.46-3.95,1.46-2,0-3.39-.54-4.18-1.61-.73-1.07-1.1-3.49-1.1-7.25v-10.47h-38.96v24.68h19.19v-3.88c0-2.64.34-4.47,1.02-5.49.73-1.03,1.98-1.54,3.74-1.54s2.88.56,3.52,1.68c.68,1.07,1.03,3.42,1.03,7.03v13.62c0,3.66-.34,6.01-1.03,7.03-.68,1.03-1.9,1.54-3.66,1.54s-2.98-.59-3.66-1.76c-.63-1.17-.95-3.44-.95-6.81v-2.56h-19.19v32.45h38.96v-11.87c0-3.76.37-6.18,1.1-7.25.78-1.07,2.17-1.61,4.18-1.61,1.85,0,3.15.51,3.88,1.54.78.98,1.17,2.86,1.17,5.64v18.46c0,1.76-.44,3.1-1.32,4.03-.88.93-2.12,1.39-3.73,1.39h-60.5ZM472.59,10.68c-2.1-.1-5.61-.54-6.54-1.32-.88-.83-1.32-2.15-1.32-3.96,0-1.71.42-3,1.24-3.88.88-.93,2.15-1.39,3.81-1.39h18.46c1.81,0,3.17.46,4.1,1.39.98.88,1.46,2.17,1.46,3.88s-.61,2.95-1.83,3.88c-1.22.93-2.9,1.39-5.05,1.39h-2.12l16.63,23.51,17.28-23.51h-2.27c-2.34,0-4.17-.46-5.49-1.39-1.32-.98-1.98-2.27-1.98-3.88s.51-2.88,1.54-3.81c1.03-.98,2.42-1.46,4.17-1.46h18.46c1.66,0,2.9.46,3.73,1.39.88.88,1.32,2.17,1.32,3.88,0,1.86-.51,3.2-1.54,4.03-.98.83-4.61,1.25-6.91,1.25l-22.36,31.64,25.49,34.35c2.15.15,4.74.64,5.76,1.47,1.03.83,1.54,2.03,1.54,3.59s-.49,2.91-1.46,3.88c-.98.93-2.3,1.39-3.96,1.39h-19.63c-2.54,0-4.25-.39-5.13-1.17-.88-.78-1.32-2.15-1.32-4.1s.54-3.22,1.61-3.96c1.07-.73,3.17-1.1,6.3-1.1h4l-19.75-25.85-19.46,25.85h4.3c3.37,0,5.64.37,6.81,1.1,1.17.73,1.76,2.05,1.76,3.96s-.46,3.32-1.39,4.1c-.93.78-2.66,1.17-5.2,1.17h-19.48c-1.66,0-2.98-.46-3.96-1.39-.98-.98-1.46-2.27-1.46-3.88s.51-2.91,1.54-3.74c1.03-.83,3.66-1.27,5.91-1.32l24.76-33.91-22.36-32.08Z"/></g><g id="OF"><g id="box"><path class="cls-1" d="M677.1,87h-88V0h88v87ZM597.1,79h72V8h-72v71Z"/></g><g id="of"><path class="cls-1" d="M611.12,43.35c0-6.76,4.49-11.95,11.88-11.95s11.85,5.18,11.85,11.95-4.49,11.98-11.85,11.98-11.88-5.18-11.88-11.98ZM616.4,43.35c0,4.49,2.21,7.36,6.6,7.36s6.57-2.87,6.57-7.36-2.18-7.33-6.57-7.33-6.6,2.87-6.6,7.33ZM638.83,55v-23.26h16.6v4.62h-11.32v6.7l10.56-.66v4.69l-10.56.66v7.26h-5.28Z"/></g></g><g id="AMERICAN"><g id="N"><path class="cls-1" d="M630.3,157.46c1.6,0,2.95.17,3.84.69.02.01.04.02.06.04.48.26.92.68,1.33,1.17.43.52.88,1.18,1.33,1.97l24.72,42.67v-36.95h-4.81c-1.96,0-3.59-.3-4.72-1.07h-.02s-.02-.03-.02-.03c-1.16-.86-1.67-2.16-1.67-3.7s.39-2.94,1.51-3.74h-.01c.56-.43,1.31-.67,2.15-.83.85-.15,1.89-.22,3.1-.22h15.14c1.4,0,2.64.34,3.5,1.24l.02.02c.87.89,1.22,2.12,1.22,3.53,0,1.56-.42,2.92-1.55,3.75-.01,0-.01,0-.02.02-.54.4-1.22.64-1.97.8-.68.14-1.47.21-2.37.23v52.1c0,1.13-.25,2.2-1.09,2.88-.01.01-.02.02-.03.02-.43.35-1.02.53-1.6.63-.63.11-1.39.16-2.28.16s-1.62-.02-2.2-.08c-.52-.05-1.05-.13-1.43-.32-.01-.01-.03-.01-.04-.02-.25-.12-.45-.3-.61-.46-.17-.18-.35-.39-.53-.64-.37-.49-.79-1.15-1.28-1.98l-26.19-45.15v38.37h5.59c1.95,0,3.56.28,4.63,1.03,1.16.8,1.65,2.1,1.65,3.61,0,1.6-.43,2.99-1.58,3.82-.56.4-1.35.63-2.22.77-.9.14-2.01.21-3.32.21h-15.66c-1.42,0-2.67-.36-3.56-1.24-.88-.89-1.24-2.14-1.24-3.56,0-1.52.38-2.88,1.47-3.65h0s.01-.01.01-.01c.54-.38,1.23-.62,2-.76.78-.15,1.72-.22,2.79-.22h.01v-45.51h-.32c-1.51,0-2.8-.07-3.86-.22-1.05-.15-1.95-.38-2.63-.74h-.01c-1.41-.79-2.04-2.16-2.04-3.84,0-1.54.54-2.84,1.77-3.63,1.15-.75,2.83-1.06,4.87-1.06l8.17-.1Z"/></g><g id="A"><path class="cls-1" d="M594.33,213.55c-.52-.38-1.18-.62-1.91-.77-.74-.15-1.61-.22-2.6-.22h-.22l-20.36-50.89h-.01c-.58-1.41-1.3-2.57-2.22-3.22-.02-.02.02.01,0,0-.5-.38-1.16-.63-1.87-.78-.74-.15-1.62-.21-2.62-.21h-15.03c-1.71,0-3.12.07-4.22.22-1.05.14-1.99.37-2.59.81-1.12.8-1.52,2.19-1.52,3.76s.49,2.93,1.68,3.77l.02.02h.02c1.14.74,2.91,1.01,5.08,1.01h6.25l-17.17,45.51h-.31c-1.1,0-2.04.07-2.84.22-.78.14-1.48.38-2.02.76-1.11.8-1.52,2.14-1.52,3.66s.4,2.97,1.5,3.8h.01s.01.02.01.02c.55.39,1.28.62,2.08.77.83.14,1.83.21,2.99.21h13.87c1.31,0,2.42-.07,3.32-.21.87-.14,1.65-.37,2.21-.77h.01c1.14-.83,1.57-2.22,1.57-3.82s-.49-2.85-1.71-3.62c-.01,0-.01,0-.02,0-.58-.39-1.33-.63-2.18-.78-.87-.15-1.9-.23-3.1-.23h-3.69l3.81-10.55h25.41l4.31,10.55h-3.42c-1.18,0-2.2.08-3.06.23-.85.15-1.59.4-2.18.78,0,0-.01,0-.01,0-1.18.78-1.66,2.09-1.66,3.62s.41,2.97,1.51,3.8l.02.02h.02c.57.41,1.38.63,2.28.77.93.14,2.09.21,3.45.21h14.34c.96,0,1.8-.07,2.52-.22.7-.15,1.35-.39,1.85-.79l.02-.02c1.01-.84,1.36-2.22,1.36-3.77s-.38-2.84-1.45-3.65ZM552.39,193l8.85-24.17,9.8,24.17h-18.65Z"/></g><g id="C"><path class="cls-1" d="M502.3,210.29c0,1.35-.54,2.59-1.5,3.71-.92,1.08-2.55,2.31-4.8,3.72-.01,0-.01.01-.02.01-3.01,1.98-6.07,3.44-9.15,4.38-3.09.95-6.33,1.42-9.73,1.42-8.95,0-16.39-3.17-22.25-9.5-5.86-6.36-8.76-14.47-8.76-24.25s2.94-17.78,8.86-24.25c5.93-6.47,13.4-9.71,22.36-9.71,2.4,0,4.83.29,7.29.87,2.22.52,4.52,1.25,6.92,2.22.37-.66.85-1.2,1.46-1.57.86-.53,1.98-.73,3.26-.73,1.43,0,2.71.35,3.51,1.31.42.5.66,1.17.81,1.89.15.74.42,16.33.42,16.33-.02,1.62-.3,3.02-1.11,3.88v.02s-.02.01-.02.01c-.86.85-2.2,1.13-3.71,1.13-1.43,0-2.66-.52-3.62-1.56-.91-1-1.52-2.42-1.89-4.15,0-.01-.01-.03-.01-.04-.25-.96-.43-1.7-.57-2.21v-.02c-.6-2.36-2.03-4.31-4.38-5.84-2.35-1.57-5.12-2.37-8.36-2.37-5.94,0-10.64,2.17-14.21,6.49h0c-3.57,4.32-5.41,10.17-5.41,17.67s1.86,13.36,5.46,17.7h0c3.64,4.3,8.39,6.45,14.37,6.45,1.95,0,3.93-.27,5.96-.81h0c2.03-.57,4.02-1.41,5.99-2.54h.02s.01-.02.01-.02c.89-.46,2.14-1.25,3.78-2.4,0,0,.01,0,.01-.01.85-.6,1.59-1.08,2.25-1.41.62-.32,1.27-.56,1.86-.56,1.33,0,2.5.46,3.42,1.37.01.01.02.02.03.03.96.88,1.45,2.02,1.45,3.34Z"/></g><g id="I"><path class="cls-1" d="M419.81,217.2c0,1.6-.42,2.99-1.57,3.82h-.01c-.56.41-1.37.63-2.27.77-.93.14-2.09.21-3.47.21h-34.49c-1.43,0-2.68-.36-3.59-1.22-.93-.89-1.31-2.14-1.31-3.58,0-1.54.41-2.9,1.59-3.67.01-.01.02-.01.03-.02.58-.38,1.37-.6,2.27-.74.94-.14,2.11-.21,3.49-.21h10.91v-45.51h-10.91c-1.35,0-2.49-.07-3.42-.21-.91-.14-1.71-.36-2.3-.74l-.02-.02c-1.19-.83-1.64-2.22-1.64-3.83,0-1.44.36-2.71,1.31-3.57l.02-.02c.92-.85,2.21-1.2,3.67-1.2h36.86c1.41,0,2.65.35,3.54,1.22t.02.02c.92.88,1.29,2.13,1.29,3.55,0,1.61-.45,3-1.64,3.83h-.01c-.57.4-1.37.62-2.27.76-.92.14-2.06.21-3.4.21h-10.92v45.51h10.92c1.38,0,2.54.07,3.47.21.88.14,1.67.36,2.23.74.01.01.03.02.04.03,1.16.76,1.58,2.13,1.58,3.66Z"/></g><g id="R"><path class="cls-1" d="M345.9,213.61s-.02-.01-.03-.02c-1.03-.76-2.67-1.03-4.64-1.03h-1.2l-10.3-15.78h-.01v-.02c-.69-1.02-1.45-1.92-2.24-2.68,0-.01.01,0,0,0-.27-.28-.55-.54-.84-.77,3.65-1.22,6.6-3.13,8.82-5.73,2.66-3.11,3.99-6.82,3.99-11.09,0-3.15-.73-6.09-2.17-8.84,0,0,0-.01,0-.01-1.4-2.75-3.36-4.96-5.86-6.64-1.96-1.32-4.35-2.22-7.12-2.73-2.74-.55-6.83-.81-12.21-.81h-22.25c-1.38,0-2.6.33-3.49,1.17h-.01s-.01.02-.01.02c-.85.85-1.19,2.04-1.19,3.39,0,1.53.44,2.89,1.63,3.64.57.36,1.36.57,2.25.7.92.13,2.06.2,3.4.2h2.06v45.98h-3.8c-1.69,0-3.13.29-4.11,1.07-1.03.82-1.43,2.11-1.43,3.57s.37,2.63,1.23,3.54h.01s.01.02.01.02c.87.87,2.08,1.24,3.45,1.24h17.71c1.06,0,1.99-.07,2.77-.23.77-.16,1.47-.41,2.01-.82,1.09-.83,1.5-2.19,1.5-3.75s-.51-2.82-1.71-3.62c-1.11-.74-2.81-1.02-4.88-1.02h-2.59v-17.67h6.02c2.08,0,3.64.44,4.76,1.2h.01c1.19.8,2.81,2.67,4.89,5.79h-.01l10.13,15.35.02.02v.03c.14.16.31.34.5.54,1.69,2.56,3.62,4.18,5.85,4.18h5.96c1.36,0,2.57-.36,3.42-1.26.86-.91,1.22-2.14,1.22-3.54,0-1.49-.41-2.78-1.5-3.59ZM325.04,183.43c-2.21,1.58-5.66,2.45-10.49,2.45h-9.92v-19.3h10.23c4.72,0,8.09.88,10.27,2.49,2.13,1.57,3.24,3.91,3.24,7.21s-1.14,5.58-3.33,7.15Z"/></g><g id="E"><path class="cls-1" d="M238.72,173.59v-6.54h-26.06v15.77h11.82v-1.79c0-1.92.24-3.51.91-4.51v-.02s.02-.01.02-.01c.78-1.1,2.05-1.53,3.5-1.53s2.67.49,3.37,1.68c.01.02.02.03.03.05.35.56.54,1.32.67,2.19.14.91.2,2.03.2,3.36v9.81c0,1.34-.06,2.48-.2,3.39-.12.88-.33,1.67-.71,2.23-.75,1.12-2.02,1.55-3.47,1.55s-2.77-.52-3.5-1.76v-.02s-.01-.01-.01-.01c-.31-.58-.51-1.33-.63-2.2-.12-.88-.18-1.94-.18-3.18v-.85h-11.82v21.36h26.06v-7.54c0-1.38.07-2.55.21-3.48.14-.91.36-1.73.75-2.3v-.02s.02-.01.02-.01c.83-1.14,2.22-1.57,3.82-1.57,1.47,0,2.8.43,3.58,1.51.02,0-.01-.01,0,0,.41.52.67,1.2.82,1.94.16.76.23,1.68.23,2.72v13.29c0,1.42-.35,2.67-1.22,3.59-.87.91-2.06,1.31-3.41,1.31h-46.04c-1.42,0-2.67-.36-3.59-1.22l-.02-.02c-.88-.89-1.24-2.14-1.24-3.56,0-1.54.4-2.9,1.54-3.67,0,0,.01,0,.01-.01.58-.38,1.38-.61,2.29-.75.94-.14,2.11-.21,3.49-.21h2.37v-45.51h-2.37c-1.35,0-2.49-.07-3.42-.21-.91-.14-1.71-.36-2.3-.74l-.02-.02h-.02c-1.14-.84-1.57-2.23-1.57-3.83,0-1.44.35-2.71,1.26-3.57.92-.87,2.22-1.22,3.69-1.22h45.94c1.39,0,2.6.43,3.43,1.43,0,.01.02.03.03.04.84.95,1.17,2.26,1.17,3.75v12.44c0,1.85-.25,3.41-.99,4.4-.8,1.07-2.14,1.45-3.64,1.45-1.6,0-2.99-.43-3.82-1.57h-.01s-.01-.02-.01-.02c-.39-.58-.61-1.39-.75-2.3-.14-.94-.21-2.11-.21-3.49Z"/></g><g id="M"><path class="cls-1" d="M160.22,217.2c0,1.4-.36,2.63-1.22,3.54h-.01s-.01.02-.01.02c-.88.87-2.08,1.24-3.45,1.24h-14.82c-1.06,0-1.98-.07-2.77-.23-.77-.16-1.46-.41-2-.82-1.09-.83-1.5-2.19-1.5-3.75s.52-2.93,1.8-3.7c.6-.36,1.39-.59,2.29-.73.91-.14,2.01-.21,3.29-.21h1.24l-.94-38.75-8.63,25.05h-.01c-.55,1.57-1.29,2.81-2.3,3.54-1.02.74-2.43,1.04-4.07,1.04s-2.95-.3-3.96-1.04h-.02s-.01-.02-.01-.02c-.99-.76-1.71-1.99-2.23-3.52l-8.77-25.08-.81,38.78h2.51c2.1,0,3.82.28,4.93,1.02,1.2.8,1.71,2.09,1.71,3.62s-.41,2.92-1.5,3.75c-.54.41-1.24.66-2.02.82-.79.16-1.73.23-2.8.23h-14.77c-1.39,0-2.62-.36-3.5-1.24h-.01s-.01-.02-.01-.02c-.84-.89-1.17-2.13-1.17-3.54,0-1.54.42-2.91,1.6-3.67.01-.01.01-.02.02-.01.55-.38,1.28-.6,2.1-.74.84-.15,1.85-.22,3.03-.22h.19l1.47-45.98c-1.86-.02-3.4-.26-4.38-.91h0s-.02-.02-.02-.02c-1.11-.79-1.52-2.11-1.52-3.61,0-1.31.33-2.48,1.17-3.32t.02-.02c.83-.88,1.98-1.24,3.29-1.24h8.65c1.69,0,3.15.29,4.23,1,0,0,.01,0,.01.01,1.1.71,1.88,1.82,2.39,3.23h.01s10.59,30.3,10.59,30.3l10.4-30.28v-.02s.02-.02.02-.02c.54-1.39,1.31-2.5,2.38-3.21h.01c1.11-.72,2.57-1.01,4.29-1.01h8.64c1.3,0,2.43.36,3.24,1.24.01.01.03.03.04.04.82.84,1.15,2,1.15,3.3,0,1.5-.41,2.82-1.52,3.61h-.01c-.52.37-1.18.59-1.91.72-.69.13-1.51.2-2.43.21l1.41,45.98h.25c1.17,0,2.19.07,3.03.22.81.14,1.54.36,2.09.73.01.01.02.01.03.02,1.17.77,1.59,2.13,1.59,3.67Z"/></g><g id="A-2"><path class="cls-1" d="M65.99,213.55c-.52-.38-1.18-.62-1.91-.77-.74-.15-1.61-.22-2.6-.22h-.21l-20.37-50.89h0c-.58-1.41-1.3-2.57-2.22-3.22-.5-.38-1.17-.63-1.88-.78-.74-.15-1.62-.21-2.62-.21h-15.03c-1.71,0-3.12.07-4.22.22-1.05.14-1.99.37-2.59.81-1.12.8-1.52,2.19-1.52,3.76s.49,2.93,1.69,3.77v.02s.03.01.03.01c1.14.73,2.91,1,5.08,1h6.25l-17.17,45.51h-.31c-1.09,0-2.04.07-2.84.22-.78.14-1.48.38-2.02.76-1.11.8-1.52,2.14-1.52,3.66s.4,2.97,1.5,3.8h.01s0,.02,0,.02c.55.39,1.28.62,2.09.77.82.14,1.82.21,2.98.21h13.87c1.31,0,2.42-.07,3.32-.21.87-.14,1.65-.37,2.21-.77h.01c1.15-.83,1.57-2.22,1.57-3.82s-.49-2.85-1.71-3.62c-.01,0-.01,0-.02,0-.58-.39-1.33-.63-2.18-.78-.86-.15-1.9-.23-3.1-.23h-3.69l3.81-10.55h25.41l4.31,10.55h-3.42c-1.18,0-2.2.08-3.06.23-.85.15-1.59.4-2.18.78,0,0-.01,0-.01,0-1.18.78-1.65,2.09-1.65,3.62s.4,2.97,1.5,3.8l.02.02h.02c.58.41,1.38.63,2.28.77.93.14,2.09.21,3.45.21h14.34c.96,0,1.8-.07,2.52-.22.7-.15,1.35-.39,1.85-.79l.02-.02c1.01-.84,1.36-2.22,1.36-3.77s-.38-2.84-1.45-3.65ZM24.05,193l8.85-24.17,9.8,24.17h-18.65Z"/></g></g><g id="DESIGN"><path class="cls-1" d="M20.57,367.67c1.56.15,3.1.27,4.61.37,1.56.05,3.08.07,4.54.07,12.01,0,20.8-2.68,26.37-8.06,5.62-5.37,8.42-13.84,8.42-25.42s-2.81-20.07-8.42-25.34c-5.62-5.32-14.6-7.98-26.95-7.98-2.29,0-4.05.02-5.27.07-1.17.05-2.27.15-3.3.29v65.99ZM20.57,378H5.7c-1.81,0-3.17-.44-4.1-1.32-.88-.88-1.32-2.2-1.32-3.96,0-1.9.51-3.22,1.54-3.96,1.07-.73,3.08-1.1,6.01-1.1h1.32v-65.99h-1.17c-2.93,0-4.96-.39-6.08-1.17-1.07-.78-1.61-2.15-1.61-4.1,0-1.81.44-3.12,1.32-3.95.93-.88,2.34-1.32,4.25-1.32h30.91c12.16,0,21.85,3.93,29.08,11.79,7.23,7.81,10.84,18.38,10.84,31.71,0,6.49-1.05,12.52-3.15,18.09-2.05,5.57-5.05,10.45-9.01,14.65-3.66,3.81-8.13,6.59-13.4,8.35-5.22,1.71-11.96,2.56-20.21,2.56-.98,0-2.64-.05-4.98-.15-2.29-.1-4.08-.15-5.35-.15ZM126.81,378h-3.44c-1.76,0-3.1-.44-4.03-1.32-.88-.88-1.32-2.2-1.32-3.96,0-1.95.51-3.27,1.54-3.96,1.07-.73,3.49-1.1,7.25-1.1h4.69v-65.99h-4.69c-3.66,0-6.05-.37-7.18-1.1-1.07-.78-1.61-2.17-1.61-4.18,0-1.81.44-3.12,1.32-3.95.93-.88,2.32-1.32,4.17-1.32h63.79c1.66,0,2.9.51,3.74,1.54.88.98,1.32,2.42,1.32,4.32v17.29c0,2.54-.37,4.3-1.1,5.27-.73.98-2.05,1.46-3.96,1.46-2,0-3.39-.54-4.18-1.61-.73-1.07-1.1-3.49-1.1-7.25v-10.47h-38.97v24.68h19.19v-3.88c0-2.64.34-4.47,1.03-5.49.73-1.03,1.98-1.54,3.74-1.54s2.88.56,3.52,1.68c.68,1.07,1.03,3.42,1.03,7.03v13.62c0,3.66-.34,6.01-1.03,7.03-.68,1.03-1.9,1.54-3.66,1.54s-2.98-.59-3.66-1.76c-.63-1.17-.95-3.44-.95-6.81v-2.56h-19.19v32.45h38.97v-11.86c0-3.76.37-6.18,1.1-7.25.78-1.08,2.17-1.61,4.18-1.61,1.85,0,3.15.51,3.88,1.54.78.98,1.17,2.86,1.17,5.64v18.46c0,1.76-.44,3.1-1.32,4.03-.88.93-2.12,1.39-3.74,1.39h-60.5ZM260.55,374.68c0,3,0,4.47-.87,5.3-.88.88-2.27,1.32-4.18,1.32-2.05,0-3.59-.61-4.61-1.83-.98-1.17-1.54-3.1-1.68-5.79l-.95-16.99v-1.32c0-2.34.44-4,1.32-4.98.93-.98,2.44-1.46,4.54-1.46,2.93,0,3.3,1.3,5.44,6.76s6,11,11,13,7.73,2,12.86,2c6.3,0,11.4-1.49,15.31-4.47,3.95-2.98,5.93-6.79,5.93-11.43,0-3.86-1.22-6.96-3.66-9.3-2.39-2.34-5.91-3.86-10.55-4.54l-10.84-1.46c-10.11-1.42-17.48-4.08-22.12-7.98-4.64-3.91-6.96-9.4-6.96-16.48,0-7.47,3.08-13.74,9.23-18.82,6.2-5.08,13.92-7.62,23.14-7.62,2.69,0,5.52.37,8.5,1.1,2.98.68,7.35,2.78,11.11,4.3-.95-1.29-.95-2.29,1.05-3.29s7-1,7,1c0,1.41,3,18.08,3,19,0,2-.82,3.13-1.8,4.11-.98.93-2.34,1.39-4.1,1.39-2.59,0-3.59-1.81-5.01-5.42-.68-2.05-1.37-3.59-2.05-4.62-1.61-2.44-3.93-4.32-6.96-5.64-3.03-1.32-7.47-1.98-11.33-1.98-5.91,0-10.72,1.46-14.43,4.39-3.66,2.93-5.49,6.76-5.49,11.5,0,3.71,1.37,6.64,4.1,8.79,2.78,2.15,7.01,3.61,12.67,4.39l11.72,1.46c8.5,1.12,14.89,3.74,19.19,7.84,4.3,4.05,6.45,9.55,6.45,16.48,0,8.2-3.05,14.8-9.15,19.77-6.1,4.93-14.26,7.4-24.46,7.4-3.52,0-7.01-.41-10.47-1.24-3.47-.83-7.87-1.64-11.87-4.64ZM417.6,367.67c3.76,0,6.15.37,7.18,1.1,1.07.68,1.61,2,1.61,3.96s-.54,3.39-1.61,4.17c-1.03.73-3.42,1.1-7.18,1.1h-47.9c-1.76,0-3.1-.44-4.03-1.32-.93-.88-1.39-2.2-1.39-3.96,0-1.95.54-3.27,1.61-3.96,1.07-.73,3.49-1.1,7.25-1.1h16.55v-65.99h-16.55c-3.66,0-6.05-.37-7.18-1.1-1.12-.78-1.68-2.17-1.68-4.18,0-1.81.46-3.12,1.39-3.95.93-.88,2.32-1.32,4.17-1.32h51.2c1.76,0,3.08.44,3.96,1.32.93.88,1.39,2.2,1.39,3.95,0,2-.56,3.39-1.68,4.18-1.07.73-3.44,1.1-7.1,1.1h-16.55v65.99h16.55ZM532.72,365.4v-17.43h-18.16c-1.46,0-2.56-.39-3.3-1.17-.68-.78-1.03-1.98-1.03-3.59,0-1.86.32-3.12.95-3.81.64-.68,1.86-1.02,3.66-1.02h31.64c1.27,0,2.2.41,2.78,1.24.64.78.95,1.98.95,3.59,0,1.81-.41,3.05-1.24,3.74-.78.68-2.2,1.03-4.25,1.03h-.95v22.05c0,1.32-.15,2.25-.44,2.78-.29.49-.88.98-1.76,1.47-2.78,1.66-6.84,3.08-12.16,4.25-5.32,1.17-10.72,1.76-16.19,1.76-13.09,0-23.66-4.17-31.71-12.52s-12.08-19.24-12.08-32.67,3.93-24.51,11.79-33.25c7.91-8.74,17.97-13.11,30.18-13.11,3.32,0,6.64.39,9.96,1.17,3.37.73,6.86,1.85,10.47,3.37.49-1.27,1.15-2.17,1.98-2.71.88-.59,2-.88,3.37-.88,2.29,0,3.81.68,4.54,2.05.78,1.37,1.17,4.52,1.17,9.45v9.96c0,2.39-.41,4.08-1.24,5.05-.83.93-2.27,1.39-4.32,1.39-2.54,0-4.37-1.56-5.49-4.69-.39-.93-.71-1.64-.95-2.12-1.81-3.86-4.39-6.84-7.76-8.94-3.37-2.1-7.23-3.15-11.57-3.15-8.74,0-15.72,3.17-20.95,9.52-5.23,6.3-7.84,14.82-7.84,25.56s2.88,19.9,8.64,26.44c5.76,6.54,13.43,9.82,23,9.82,2.78,0,5.64-.37,8.57-1.1,2.98-.73,6.23-1.9,9.74-3.52ZM614.09,367.67h9.16c2.64,0,4.52.39,5.64,1.17,1.12.78,1.68,2.08,1.68,3.88,0,2-.54,3.39-1.61,4.17-1.03.73-3.32,1.1-6.88,1.1h-21.75c-1.76,0-3.08-.44-3.96-1.32-.88-.88-1.32-2.2-1.32-3.96,0-1.95.49-3.27,1.46-3.96,1.03-.73,2.98-1.1,5.86-1.1h1.39v-65.99h-1.83c-4.1,0-6.89-.39-8.35-1.17-1.42-.78-2.12-2.15-2.12-4.1,0-1.81.61-3.1,1.83-3.88,1.27-.83,3.29-1.24,6.08-1.24,0,0,.49-.02,1.46-.07.98-.05,1.95-.07,2.93-.07h6.89c2.25,0,3.81.27,4.69.8.93.49,2,1.78,3.22,3.88l36.91,63.72v-57.86h-8.06c-2.64,0-4.57-.42-5.79-1.24-1.17-.88-1.76-2.22-1.76-4.03,0-2,.51-3.37,1.54-4.1,1.03-.78,3.17-1.17,6.45-1.17h21.02c1.76,0,3.05.44,3.88,1.32.88.88,1.32,2.2,1.32,3.95,0,1.95-.54,3.32-1.61,4.1-1.03.78-2.93,1.17-5.71,1.17h-.88v73.76c0,1.42-.34,2.39-1.03,2.93-.64.54-2.15.81-4.54.81s-3.88-.15-4.47-.44c-.54-.24-1.47-1.49-2.78-3.73l-38.97-67.16v59.84Z"/></g></svg>