<?xml version="1.0" encoding="UTF-8"?><svg id="fav" xmlns="http://www.w3.org/2000/svg" viewBox="0 0 78.89 78.9"><defs><style>.cls-1{fill:none;}.cls-1,.cls-2{stroke-width:0px;}.cls-2{fill:#fff;}</style></defs><path class="cls-2" d="M54.98,3.51c.49,0,.86.04,1.11.08-.09.05-.19.1-.28.15-1.61.85-4.95,2.62-6.01,6.85-.35,1.42-.35,3.15-.34,5.15,0,1.86,0,3.97-.29,6.19-.47,3.52-3.34,4.94-5.24,5.88-.43.21-.8.39-1.11.58-1.03.64-1.96,1.55-2.57,2.16-.13.12-.27.26-.38.37-.07-.06-.14-.14-.21-.21-.73-.74-2.11-2.11-3.97-2.86-2.42-.96-4.16-1.66-5.57-4.58-.7-1.46-.76-4.59-.82-7.61-.07-3.28-.13-6.37-.92-8.02-1.11-2.32-4-3.49-5.74-4.19.9.02,2.08.19,3.06.42,2.24.55,6.2,2.72,8.01,5.85,1.21,2.1,1.38,5.58,1.52,8.37.06,1.32.12,2.57.28,3.49.47,2.68,2,5.5,2.98,5.5.22,0,.41-.1.53-.27.22-.36.04-.75-.32-1.53-.26-.56-.62-1.33-.85-2.18-.76-2.79-.75-4.7-.74-6.73,0-1.34.01-2.73-.24-4.37-.52-3.51-3.53-6.12-5.33-7.67-.41-.36-.77-.67-1.02-.92-.34-.34-.41-.82-.4-1.17,0-.51.16-.99.28-1.23.2.12.48.33.69.48.24.16.47.33.67.46.57.37,1.4.7,1.76.7.22,0,.48,0,1.31-1.5.07-.13.14-.25.2-.37s.13-.26.2-.37c.24.18.61.51.88.75.95.84,1.29,1.12,1.63,1.12.46,0,.72-.45,1.07-1.06.15-.27.47-.81.62-.92.3.11,1.03.86,1.35,1.19.55.57.76.79,1.06.79.36,0,.58-.29,1.17-1.04.2-.26.5-.65.7-.86.23.21.6.63.87.92.91,1.02,1.23,1.35,1.61,1.35.13,0,.47,0,1.27-1.07.09-.12.21-.29.35-.49.2-.29.59-.83.81-1.09.12.12.29.4.4.86.19.75.17,1.86-.47,2.56-.29.33-.62.61-.99.95-1.14,1-2.55,2.25-4.18,5.49-1.14,2.29-1.2,6.58-1.25,9.71-.01.77-.02,1.46-.04,2.03-.08,1.71-.67,3.09-1.02,3.91-.26.62-.39.9-.19,1.2.1.16.28.25.47.25.76,0,2.09-1.48,2.6-4.26.19-1.02.33-2.49.5-4.19.29-2.85.61-6.09,1.23-8.16.98-3.31,3.99-5.5,6.28-6.37.76-.29,1.91-.47,3.02-.47Z"/><path class="cls-1" d="M54.98,3.51c-1.11,0-2.26.18-3.02.47-2.29.87-5.3,3.06-6.28,6.37-.62,2.07-.94,5.31-1.23,8.16-.17,1.7-.31,3.17-.5,4.19-.51,2.78-1.84,4.26-2.6,4.26-.19,0-.37-.09-.47-.25-.2-.3-.07-.58.19-1.2.35-.82.94-2.2,1.02-3.91.02-.57.03-1.26.04-2.03.05-3.13.11-7.42,1.25-9.71,1.63-3.24,3.04-4.49,4.18-5.49.37-.34.7-.62.99-.95.64-.7.66-1.81.47-2.56-.11-.46-.28-.74-.4-.86-.22.26-.61.8-.81,1.09-.14.2-.26.37-.35.49-.8,1.07-1.14,1.07-1.27,1.07-.38,0-.7-.33-1.61-1.35-.27-.29-.64-.71-.87-.92-.2.21-.5.6-.7.86-.59.75-.81,1.04-1.17,1.04-.3,0-.51-.22-1.06-.79-.32-.33-1.05-1.08-1.35-1.19-.15.11-.47.65-.62.92-.35.61-.61,1.06-1.07,1.06-.34,0-.68-.28-1.63-1.12-.27-.24-.64-.57-.88-.75-.07.11-.14.25-.2.37s-.13.24-.2.37c-.83,1.5-1.09,1.5-1.31,1.5-.36,0-1.19-.33-1.76-.7-.2-.13-.43-.3-.67-.46-.21-.15-.49-.36-.69-.48-.12.24-.28.72-.28,1.23-.01.35.06.83.4,1.17.25.25.61.56,1.02.92,1.8,1.55,4.81,4.16,5.33,7.67.25,1.64.24,3.03.24,4.37-.01,2.03-.02,3.94.74,6.73.23.85.59,1.62.85,2.18.36.78.54,1.17.32,1.53-.12.17-.31.27-.53.27-.98,0-2.51-2.82-2.98-5.5-.16-.92-.22-2.17-.28-3.49-.14-2.79-.31-6.27-1.52-8.37-1.81-3.13-5.77-5.3-8.01-5.85-.98-.23-2.16-.4-3.06-.42,1.74.7,4.63,1.87,5.74,4.19.79,1.65.85,4.74.92,8.02.06,3.02.12,6.15.82,7.61,1.41,2.92,3.15,3.62,5.57,4.58,1.86.75,3.24,2.12,3.97,2.86.07.07.14.15.21.21.11-.11.25-.25.38-.37.61-.61,1.54-1.52,2.57-2.16.31-.19.68-.37,1.11-.58,1.9-.94,4.77-2.36,5.24-5.88.3-2.22.3-4.33.29-6.19-.01-2-.01-3.73.34-5.15,1.06-4.23,4.4-6,6.01-6.85.09-.05.19-.1.28-.15-.25-.04-.62-.08-1.11-.08Z"/><path class="cls-2" d="M48.35,75.34c.66.56.49,1.44.39,1.8-.18.6-.49.94-.64,1.02-.26-.14-.9-.57-1.31-.84-1.06-.71-1.14-.76-1.35-.76-.43,0-.72.42-1.28,1.29-.14.21-.35.53-.5.72-.22-.18-.54-.52-.76-.74-.65-.68-.87-.89-1.18-.89s-.53.22-1.19.88c-.33.33-.92.93-1.18,1.08-.24-.14-.72-.73-.99-1.06-.54-.66-.84-1.03-1.24-1.03s-.72.36-1.37,1.1c-.18.21-.45.52-.62.69-.25-.17-.66-.49-.94-.7-.84-.63-.94-.72-1.17-.72s-.4.12-1.3.84c-.26.21-.66.53-.9.7-.26-.28-.7-.97-.79-1.7-.07-.58.1-1.07.49-1.46.27-.27.64-.59,1.07-.95,1.75-1.47,4.39-3.69,4.91-7.15.31-2.07.4-4.26.48-6.37.08-1.89.15-3.68.39-5.03.3-1.73,1.19-2.81,1.67-3.38.29-.36.5-.62.35-.96-.08-.2-.27-.32-.5-.33-.01,0-.05-.01-.06-.01-.48,0-1.04.3-1.58.85-.61.61-2.62,3.05-2.62,8.46.01.41.01.82.02,1.23.05,2.48.1,5.04-1.44,7.7-1.69,2.93-4.99,4.86-7.51,5.47-.42.1-.89.15-1.39.15-.32,0-.62-.02-.89-.05,2.06-.97,4.41-2.91,5.71-5.6.79-1.65.79-4.45.79-7.41,0-2.72,0-5.53.7-6.98,1.61-3.36,5.38-4.65,5.54-4.7.72-.24,1.67-1.06,2.51-1.78.3-.25.69-.59.91-.74.13.11.33.32.5.49.6.62,1.43,1.46,2.35,1.78,1.55.53,6.16,3.21,6.49,6.64.18,1.84.12,3.69.07,5.49-.08,2.63-.16,5.12.59,6.94,1.23,3,4.44,4.81,6.17,5.79.05.03.1.05.15.08-1.45-.05-3.89-.51-5.06-.95-2.43-.93-4.34-2.76-5.82-5.59-.89-1.71-1-4.61-1.1-7.41-.06-1.68-.12-3.27-.34-4.6-.49-2.94-1.67-4.76-2.48-4.76-.2,0-.37.09-.48.25-.19.29-.07.58.13,1.06.27.65.77,1.85.84,3.55.03.64.04,1.41.06,2.26.06,3.06.14,6.88.83,9.16,1.16,3.78,3.28,5.29,4.84,6.4.37.27.73.52,1.03.78Z"/><path class="cls-2" d="M77.93,47.02c.31.39.75.94.96,1.24-.32.3-1.2.85-2.2.85-.6,0-1.14-.2-1.61-.59-.52-.42-1.04-1.02-1.59-1.66-1.65-1.89-3.7-4.25-7.55-4.28-2.82-.02-8.7-.07-10.51-.72-.76-.27-1.44-.65-1.93-.92-.54-.3-.83-.47-1.11-.47-.36,0-.61.26-.61.62,0,.86,1.55,2.71,4.51,3.23.6.1,1.4.15,2.61.15.53,0,1.09-.01,1.68-.02.62-.01,1.27-.02,1.92-.02,2.51,0,5.29.13,6.92,1.07,3.06,1.76,5.23,5.77,5.79,8.05.32,1.31.44,2.65.42,3.45-.15-.26-.31-.56-.47-.84-.81-1.48-2.03-3.7-3.59-5.19-1.95-1.87-6.04-1.94-9.99-2.01-2.62-.05-5.08-.09-6.65-.65-3.01-1.06-3.62-3.01-4.41-5.51-.54-1.69-1.89-2.53-2.7-3.03-.05-.03-.11-.06-.16-.1.01-.01.02-.01.03-.02.76-.53,2.36-1.62,3-3.27l.05-.12c.71-1.81,2.18-5.58,6.39-6.14,1.87-.26,3.68-.29,5.34-.29h1.65c1.57,0,3.08-.02,4.36-.34,4.23-1.06,5.63-4.92,6.3-6.87.08,1.47-.11,4.06-.71,5.22-2.2,4.24-4.99,6.28-9.97,7.31-1.86.38-3.79.4-5.49.41-1.3.02-2.42.03-3.22.21-1.45.33-2.93,1.33-3.22,1.84-.11.2-.09.37-.06.48.09.25.31.4.57.4.2,0,.39-.09.67-.23.54-.28,1.44-.74,2.91-.76h.94c3.57-.05,8.97-.12,11.46-1.42,2.62-1.37,4.44-3.24,6.22-5.19.41-.45.95-.68,1.6-.68s1.22.24,1.45.41c-.23.38-.98,1.22-1.33,1.61-.64.72-.73.81-.73,1.05,0,.47.44.72,1.7,1.37.33.17.78.41,1.04.58-.21.25-.59.64-.84.91-.76.78-.96.99-.96,1.3,0,.33.26.55.89,1.09.28.25.84.73,1.01.97-.16.22-.72.65-1.04.89-.68.51-1.05.79-1.05,1.2,0,.44.41.73,1.34,1.35.22.14.54.35.75.52-.24.23-.6.57-.85.8-.9.82-.99.9-.99,1.18,0,.24.08.36,1.06,1.58Z"/><path class="cls-2" d="M31.25,39.1c-.1.09-.23.2-.35.3-.74.63-1.85,1.58-2.53,2.67-.22.37-.44.87-.68,1.44-.92,2.14-2.18,5.07-5.54,5.52-.95.13-1.92.19-2.98.19-1.17,0-2.25-.07-3.29-.14-.9-.06-1.75-.12-2.55-.12-.85,0-1.54.06-2.16.21-5.13,1.18-6.68,5.09-7.35,6.76-.12-.97-.06-2.69.42-3.93,1.08-2.83,3.33-5.35,6.03-6.74,2.17-1.12,6-1.37,9.08-1.57.59-.04,1.15-.07,1.66-.11,2.37-.19,5.42-1.14,5.93-1.85.15-.21.13-.41.11-.51-.03-.13-.18-.54-.75-.54-.29,0-.67.1-1.29.28-.75.2-1.78.49-3.26.76-.87.16-2.19.18-3.73.21-3.32.05-7.45.12-9.53,1.75-1.4,1.09-2.34,2.11-3.1,2.93-.81.86-1.45,1.55-2.28,1.98-.14.07-.28.1-.42.1-.51,0-1-.43-1.19-.65.12-.37.56-1.24.78-1.69.39-.78.44-.87.44-1.04,0-.34-.17-.43-.97-.88-.35-.2-1.02-.58-1.31-.8.17-.28.56-.76.81-1.07.67-.84.85-1.07.85-1.34,0-.37-.29-.55-.93-.96-.31-.19-.99-.62-1.17-.86.13-.21.62-.61.89-.83.58-.48.96-.79.96-1.2,0-.37-.33-.72-1.08-1.47-.21-.21-.51-.51-.68-.71.24-.23.67-.6.96-.84.97-.84,1.05-.91,1.05-1.19s-.15-.45-1.04-1.35c-.25-.25-.64-.64-.85-.88.36-.47.9-.92,1.69-.92.55,0,1.17.22,1.85.65.9.58,1.43,1.29,1.99,2.04.89,1.18,1.81,2.41,4.15,3.16,2.37.77,5.01.89,7.57.99,1.65.08,3.35.15,4.93.4,1.22.19,2.25.67,2.93.99.49.23.76.36,1.01.36.35,0,.61-.26.61-.61,0-.91-2.36-2.71-5.26-3.22-.95-.16-2.2-.21-3.64-.26-2.8-.09-6.29-.22-8.37-1.41-3.02-1.74-4.95-4.93-5.54-7.32-.3-1.23-.43-2.49-.43-3.3l.18.36c.9,1.78,2.39,4.76,4.72,5.81,2.29,1.04,4.81,1.16,6.49,1.16.97,0,1.92-.04,2.83-.09.82-.03,1.61-.07,2.34-.07,1.45,0,2.41.15,3.11.48,3.06,1.47,3.93,2.54,4.84,4.82.75,1.86,2.12,3.23,2.87,3.97.05.06.12.12.17.18Z"/><path class="cls-2" d="M58.37,14.1c-.41,2.51-3.85,6.65-4.99,7.53-.69-1.44-2.81-7.18-1.63-10.51.89-2.48,3.58-3.87,4.9-4.1-.04.18-.06.4-.02.65.04.38.27.84.57,1.42.63,1.27,1.49,3,1.17,5.01Z"/><path class="cls-2" d="M72.96,17.63c-.09.89-.85,1.83-1.86,1.83-.31,0-.63-.09-.94-.26-1.91-1.05-3.66-1.58-5.22-1.58-.51,0-1,.06-1.47.17-2.24.51-4.2,2.1-5.63,3.25-.66.54-1.48,1.2-1.72,1.21h-.01c.12-.33.74-1.06,1.25-1.66,1.27-1.5,3.01-3.55,3.36-5.84.41-2.69-1.19-5.59-1.88-6.83-.12-.22-.23-.42-.26-.5-.06-.15-.05-.41.1-.65.19-.31.56-.49,1.06-.52,2.45,0,3.12,1.63,4.88,5.98l.11.28c1.17,2.89,4.23,3.34,6.24,3.64.3.05.59.09.84.13,1.09.2,1.18.93,1.15,1.35Z"/><path class="cls-2" d="M72.03,21.93c0,.12-.02.3-.11.58-.48,1.52-2.26,3.69-3.75,4.09-1.14.3-2.37.46-3.63.46-3.92,0-7.19-1.5-7.83-2.18.31-.24.7-.61,1.17-1.05,1.43-1.35,3.58-3.39,5.56-3.83.48-.1.95-.16,1.4-.16,1.4,0,2.47.51,3.51,1.01,1,.47,1.94.91,3.09.91.13,0,.25,0,.38-.01.03,0,.05,0,.07,0,.08,0,.11.02.11.02.01.01.03.07.03.17Z"/><path class="cls-2" d="M57.78,27.42c-.11-.01-.23-.02-.35-.02-.22,0-.43.02-.64.05-.84.14-1.38.54-1.86.88-.41.3-.75.55-1.23.61-.06.01-.12.01-.19.01-.73,0-1.41-.52-1.42-.53-.09-.07-.2-.1-.31-.1-.12,0-.24.04-.34.13l-3.48,3.22c-.14.14-.2.35-.13.54s.24.32.44.33c.42.02,1.12.19,1.3.47.02.04.08.12,0,.35-.2.54-1.39.89-3.03.89-.99,0-1.78-.13-2.11-.23-.1-1.26-.07-4.22,1.16-4.6.19-.06.35-.09.49-.09.23,0,.33.08.39.15.24.26.24.84.22,1.02-.03.21.09.41.28.5.07.04.14.05.21.05.14,0,.27-.05.36-.15l3.11-3.23c.11-.11.15-.27.13-.42-.02-.15-.12-.29-.26-.37-.02,0-.51-.29-.6-1.22-.08-.8.54-1.77.91-2.35.12-.19.22-.36.28-.47.21-.43.22-1.09.17-1.64.16.2.31.44.4.7.1.32.07.73.05,1.05-.03.41-.05.77.19,1.01.18.17.41.17.5.17.24,0,.61-.05,1.07-.13.54-.08,1.15-.18,1.57-.18h.07c-.08.32-.34.88-.48,1.18-.38.82-.57,1.24-.24,1.56.14.15.33.22.56.22.09,0,.2-.01.34-.03.17-.03.35-.05.6-.05.09,0,.19,0,.3.01.65.05,1.21.39,1.57.71Z"/><path class="cls-2" d="M25.37,21.91c-.14,0-.59-.21-1.33-.98-1.77-1.83-3.87-5.47-3.81-7.1.07-1.8.74-3.47,1.22-4.68.27-.67.48-1.21.53-1.61.03-.26.01-.48-.03-.66,1.46.12,3.85.98,5.03,3.66,1.33,3.03-.76,9.66-1.61,11.37Z"/><path class="cls-2" d="M22.77,22.84s-.03.02-.06.02c-.4,0-1.32-.84-2.13-1.58-1.42-1.3-3.18-2.91-5.19-3.37-.45-.1-.96-.16-1.51-.16-1.73,0-3.79.51-5.78,1.43-.25.12-.49.18-.71.18-.67,0-1.08-.54-1.2-1.08-.12-.56.03-1.29.83-1.66,3.77-1.73,5.5-2.76,6.93-3.77,1.1-.77,1.55-2.27,1.99-3.71.65-2.14,1.16-3.45,2.64-3.51.54.09.88.28,1.06.56.41.68-.03,2.07-.49,3.54-.43,1.34-.91,2.86-.91,4.33,0,2,1.64,4.29,2.96,6.13.66.92,1.66,2.32,1.57,2.65Z"/><path class="cls-2" d="M21.84,25.69c-.81.02-1.69.31-2.69.65-1.34.44-2.85.94-4.58.94-1.35,0-2.63-.29-3.94-.9-2.18-1.01-4.24-4.23-4.04-4.75,0,0,.03,0,.11,0h.08c.13.02.26.02.39.02,1.14,0,2.08-.45,3.08-.92,1.04-.49,2.12-1,3.52-1,.45,0,.92.05,1.4.16,2.12.47,5.79,4.34,6.67,5.81Z"/><path class="cls-2" d="M33.96,34.37c-.21.06-.71.14-1.4.14-1.26,0-2.3-.27-2.7-.69-.14-.15-.2-.31-.19-.51.01-.21.05-.78.93-.78.08,0,.13,0,.13.01h.07c.19,0,.37-.11.45-.29.1-.19.05-.43-.11-.58l-3.48-3.22c-.09-.09-.21-.13-.34-.13-.08,0-.17.02-.24.06-.01.01-1.03.57-1.87.57-.07,0-.13,0-.2-.01-.46-.06-.62-.18-.85-.36-.28-.22-.64-.49-1.49-.63-.2-.03-.41-.05-.62-.05-.16,0-.31.01-.44.02.27-.31.72-.66,1.39-.71.07-.01.14-.01.2-.01.27,0,.41.05.54.1.1.04.21.08.35.08.12,0,.3-.03.47-.2.29-.28.18-.63-.14-1.68-.13-.43-.39-1.26-.42-1.64.06-.01.13-.01.22-.01.35,0,.81.05,1.21.1.37.04.68.07.91.07.2,0,.41-.02.58-.18.25-.26.21-.58.19-.77-.03-.17-.05-.36.05-.67.12-.35.38-.73.65-1.05-.03.52-.01,1.1.18,1.49.08.14.19.3.31.49.35.5.82,1.2.75,1.96-.11,1.06-.62,1.72-.62,1.72-.16.2-.15.48.02.66l3.11,3.23c.09.1.22.15.36.15.05,0,.1-.01.14-.02.18-.05.32-.21.35-.39.07-.4.36-1.18.71-1.18.1,0,.23.05.37.14,1.7,1.14.68,4.2.47,4.77Z"/><path class="cls-1" d="M33.49,29.6c-.14-.09-.27-.14-.37-.14-.35,0-.64.78-.71,1.18-.03.18-.17.34-.35.39-.04.01-.09.02-.14.02-.14,0-.27-.05-.36-.15l-3.11-3.23c-.17-.18-.18-.46-.02-.66,0,0,.51-.66.62-1.72.07-.76-.4-1.46-.75-1.96-.12-.19-.23-.35-.31-.49-.19-.39-.21-.97-.18-1.49-.27.32-.53.7-.65,1.05-.1.31-.08.5-.05.67.02.19.06.51-.19.77-.17.16-.38.18-.58.18-.23,0-.54-.03-.91-.07-.4-.05-.86-.1-1.21-.1-.09,0-.16,0-.22.01.03.38.29,1.21.42,1.64.32,1.05.43,1.4.14,1.68-.17.17-.35.2-.47.2-.14,0-.25-.04-.35-.08-.13-.05-.27-.1-.54-.1-.06,0-.13,0-.2.01-.67.05-1.12.4-1.39.71.13-.01.28-.02.44-.02.21,0,.42.02.62.05.85.14,1.21.41,1.49.63.23.18.39.3.85.36.07.01.13.01.2.01.84,0,1.86-.56,1.87-.57.07-.04.16-.06.24-.06.13,0,.25.04.34.13l3.48,3.22c.16.15.21.39.11.58-.08.18-.26.29-.45.29h-.07s-.05-.01-.13-.01c-.88,0-.92.57-.93.78-.01.2.05.36.19.51.4.42,1.44.69,2.7.69.69,0,1.19-.08,1.4-.14.21-.57,1.23-3.63-.47-4.77ZM33.49,29.6c-.14-.09-.27-.14-.37-.14-.35,0-.64.78-.71,1.18-.03.18-.17.34-.35.39-.04.01-.09.02-.14.02-.14,0-.27-.05-.36-.15l-3.11-3.23c-.17-.18-.18-.46-.02-.66,0,0,.51-.66.62-1.72.07-.76-.4-1.46-.75-1.96-.12-.19-.23-.35-.31-.49-.19-.39-.21-.97-.18-1.49-.27.32-.53.7-.65,1.05-.1.31-.08.5-.05.67.02.19.06.51-.19.77-.17.16-.38.18-.58.18-.23,0-.54-.03-.91-.07-.4-.05-.86-.1-1.21-.1-.09,0-.16,0-.22.01.03.38.29,1.21.42,1.64.32,1.05.43,1.4.14,1.68-.17.17-.35.2-.47.2-.14,0-.25-.04-.35-.08-.13-.05-.27-.1-.54-.1-.06,0-.13,0-.2.01-.67.05-1.12.4-1.39.71.13-.01.28-.02.44-.02.21,0,.42.02.62.05.85.14,1.21.41,1.49.63.23.18.39.3.85.36.07.01.13.01.2.01.84,0,1.86-.56,1.87-.57.07-.04.16-.06.24-.06.13,0,.25.04.34.13l3.48,3.22c.16.15.21.39.11.58-.08.18-.26.29-.45.29h-.07s-.05-.01-.13-.01c-.88,0-.92.57-.93.78-.01.2.05.36.19.51.4.42,1.44.69,2.7.69.69,0,1.19-.08,1.4-.14.21-.57,1.23-3.63-.47-4.77ZM33.49,29.6c-.14-.09-.27-.14-.37-.14-.35,0-.64.78-.71,1.18-.03.18-.17.34-.35.39-.04.01-.09.02-.14.02-.14,0-.27-.05-.36-.15l-3.11-3.23c-.17-.18-.18-.46-.02-.66,0,0,.51-.66.62-1.72.07-.76-.4-1.46-.75-1.96-.12-.19-.23-.35-.31-.49-.19-.39-.21-.97-.18-1.49-.27.32-.53.7-.65,1.05-.1.31-.08.5-.05.67.02.19.06.51-.19.77-.17.16-.38.18-.58.18-.23,0-.54-.03-.91-.07-.4-.05-.86-.1-1.21-.1-.09,0-.16,0-.22.01.03.38.29,1.21.42,1.64.32,1.05.43,1.4.14,1.68-.17.17-.35.2-.47.2-.14,0-.25-.04-.35-.08-.13-.05-.27-.1-.54-.1-.06,0-.13,0-.2.01-.67.05-1.12.4-1.39.71.13-.01.28-.02.44-.02.21,0,.42.02.62.05.85.14,1.21.41,1.49.63.23.18.39.3.85.36.07.01.13.01.2.01.84,0,1.86-.56,1.87-.57.07-.04.16-.06.24-.06.13,0,.25.04.34.13l3.48,3.22c.16.15.21.39.11.58-.08.18-.26.29-.45.29h-.07s-.05-.01-.13-.01c-.88,0-.92.57-.93.78-.01.2.05.36.19.51.4.42,1.44.69,2.7.69.69,0,1.19-.08,1.4-.14.21-.57,1.23-3.63-.47-4.77Z"/><path class="cls-2" d="M58.1,69.24c-.44.81-.9,1.65-.74,2.96-.04,0-.1.01-.18.01-1.21,0-4.04-1.32-4.93-3.75-1.3-3.53.94-9.97,1.68-11.37,1.2.86,4.9,5.97,5.05,8.71.09,1.67-.4,2.57-.88,3.44Z"/><path class="cls-2" d="M72.07,62.59c-.27.12-.55.24-.85.37-1.71.73-3.85,1.64-6.24,3.81-1.31,1.19-1.78,2.93-2.2,4.47-.47,1.7-.77,2.66-1.64,2.66-.12,0-.25-.01-.39-.04-.63-.24-1-.56-1.16-.96-.33-.85.32-2.13.85-3.16.18-.37.36-.72.5-1.04,1.21-2.95-.28-6.89-4.55-12.04,0-.02,0-.09.06-.17.04-.06.13-.15.27-.15h.05c.15.05.51.32.96.67.45.35.97.79,1.44,1.18,1.49,1.23,3.17,2.63,4.21,3.08.61.27,1.21.4,1.84.4,1.59,0,3.25-.78,6.28-2.27.13-.06.25-.09.37-.09.49,0,.98.56,1.14,1.29.07.34.21,1.47-.94,1.99Z"/><path class="cls-2" d="M72.54,56.98h-.04c-.2-.04-.39-.06-.6-.06-1.07,0-2.07.53-3.12,1.1-1.07.58-2.18,1.17-3.37,1.17-.51,0-1.01-.11-1.51-.32-3.07-1.33-5.77-4.31-6.26-5.23,2.85-1.61,4.98-2.3,7.09-2.3,1.25,0,2.48.25,3.76.76,1.62.65,3.22,2.55,3.83,4.02.2.46.23.74.22.86Z"/><path class="cls-2" d="M57.47,51.67c-.32.28-.68.56-.84.6-.4.1-.69.11-.92.12-.28.01-.58.03-.81.26-.28.28-.19.65.03,1.56.09.37.24,1.02.26,1.31h-.02c-.3,0-.77-.1-1.15-.18-.37-.08-.66-.14-.87-.14-.08,0-.31,0-.48.18-.23.22-.24.55-.25.88,0,.28-.01.6-.12.92-.13.4-.52.72-.83.89.05-.48.04-1.16-.24-1.71-.06-.12-.16-.28-.28-.48-.37-.58-.99-1.55-.91-2.35.09-.92.59-1.21.6-1.22.14-.07.24-.2.27-.36.02-.16-.03-.32-.14-.43l-3.1-3.23c-.1-.09-.23-.15-.36-.15-.05,0-.11.01-.16.03-.18.06-.31.21-.34.4,0,.02-.18,1.21-.96,1.21-.06,0-.12-.01-.19-.02-.41-.07-.68-.26-.86-.58-.58-1.06,0-3.23.38-4.27.24-.02.62-.04,1.06-.04.99,0,3.31.13,3.56,1.29.04.17.06.39-.04.51-.09.11-.3.17-.56.17-.2,0-.36-.03-.44-.05-.09-.09-.21-.14-.33-.14-.09,0-.18.03-.26.07-.19.12-.28.35-.23.56.03.1.09.22.24.33l3.38,3.13c.1.09.22.14.34.14.1,0,.2-.03.28-.09.01,0,.82-.53,1.7-.53.64.01,1.03.35,1.44.72.32.28.66.58,1.1.65.21.04.42.06.65.06.14,0,.27,0,.4-.02Z"/><path class="cls-2" d="M26.75,67.89c-1.42,2.82-3.75,3.96-4.92,4.16.04-.18.06-.4.03-.65-.05-.4-.27-.85-.55-1.42-.53-1.1-1.26-2.6-1.08-4.4.4-4.07,4.36-7.92,5.51-8.31.12.61.3,1.32.5,2.07.68,2.68,1.63,6.34.51,8.55Z"/><path class="cls-2" d="M22.95,56.54c-.01.36-.86,1.5-1.48,2.33-1.88,2.53-4.46,6-3.2,9.2,1.25,3.15.91,4.38.61,4.84-.21.3-.54.45-1.01.45-.1,0-.2,0-.29-.01-1.29-.23-1.58-1.29-1.99-3.14-.26-1.21-.56-2.59-1.4-3.75-1.15-1.59-2.78-2.22-5.48-3.27-.49-.19-1.01-.4-1.59-.63-1.15-.45-1.53-1.36-1.39-2.05.09-.48.46-.99,1.22-.99.31,0,.65.09,1.02.26,2.23,1.06,3.49,1.55,5.41,1.55.21,0,.43,0,.66-.02,1.91-.07,4.28-1.76,6.18-3.12,1.07-.75,2.27-1.61,2.73-1.65Z"/><path class="cls-2" d="M22.03,53.72c-.7,1.01-4.7,4.5-7.88,5.24-.39.1-.78.14-1.18.14-1.32,0-2.47-.52-3.49-.97-.83-.38-1.62-.73-2.37-.74-.18,0-.36.03-.53.07.18-.89,1.05-3.02,3.51-4.8.85-.61,2.09-.93,3.67-.93,3.36,0,7.26,1.44,8.27,1.99Z"/><path class="cls-2" d="M33.6,49.68c-.11.04-.21.06-.3.06-.61,0-.91-.96-.91-.97-.05-.17-.2-.31-.37-.35-.04-.01-.08-.01-.11-.01-.15,0-.28.06-.38.17l-2.86,3.22c-.13.16-.16.38-.06.57.03.05.72,1.4-.12,2.86-.22.38-.53,1.24-.85,2.18-.25-.46-.58-1.21-.85-1.97-.08-.2-.27-.33-.47-.33-.04,0-.07,0-.1.01,0,0-1.06.2-1.88.2-.32,0-.49-.03-.59-.06.03-.38.37-1.38.79-2.3.07-.16.05-.34-.05-.49-.09-.13-.24-.22-.41-.22h-.13c-.22.01-1.79-.02-2.52-.65.42-.04.81-.18,1.18-.41,1.23-.77,1.68-1.02,2.78-1.17.06,0,.12-.01.18-.01.55,0,.81.39.81.4.08.12.21.21.35.23.03.01.06.01.08.01.12,0,.24-.04.33-.12l3.48-2.98c.15-.13.21-.34.15-.53-.07-.2-.24-.33-.44-.35-.22-.01-.76-.14-.93-.39-.02-.04-.1-.16,0-.44.18-.51,1.21-.82,2.73-.82.99,0,1.91.12,2.33.2.15,1.01.16,4.08-.87,4.46Z"/><path class="cls-2" d="M42.96,40.72c0,.22.11.57.4,1.46.11.33.26.8.37,1.16-.19-.06-.41-.13-.58-.19-.79-.27-1.33-.45-1.68-.45-.68,0-1.03.85-1.53,2.24-.01.02-.02.05-.03.08-.07-.13-.14-.27-.2-.4-.72-1.45-1-1.92-1.47-1.92-.24,0-.6.14-1.58.55-.3.12-.71.29-1.05.42.07-.26.15-.56.23-.81.49-1.74.58-2.18.27-2.49-.17-.17-.45-.27-1.5-.61-.34-.11-.86-.27-1.26-.42.26-.11.55-.23.79-.32,1.28-.52,1.87-.75,1.87-1.27,0-.23-.11-.55-.38-1.28-.08-.21-.18-.51-.27-.76.19.04.39.1.57.14.67.17,1.37.35,1.81.35.1,0,.4,0,.61-.21.19-.19.34-.57.7-1.54.12-.34.29-.81.45-1.16.13.27.28.61.39.87.61,1.38.84,1.85,1.33,1.85.24,0,.51-.11,1.07-.36.25-.11.61-.26.88-.35-.11.32-.31.76-.43,1.04-.27.62-.4.92-.4,1.16,0,.48.43.72,2.3,1.55.19.08.41.18.61.28-.11.04-.22.08-.32.11-1.4.52-1.97.75-1.97,1.28Z"/></svg>